<?xml version="1.0" encoding="UTF-8" standalone="no"?>
<!-- Created with Inkscape (http://www.inkscape.org/) -->

<svg
   width="193mm"
   height="29.756001mm"
   viewBox="0 0 193 29.756001"
   version="1.1"
   id="svg1"
   inkscape:version="1.3-beta (cedbd6c, 2023-05-28)"
   sodipodi:docname="little-bears-new-logo-long.svg"
   inkscape:export-filename="little-bears-new-logo-wide.png"
   inkscape:export-xdpi="112.25351"
   inkscape:export-ydpi="112.25351"
   xmlns:inkscape="http://www.inkscape.org/namespaces/inkscape"
   xmlns:sodipodi="http://sodipodi.sourceforge.net/DTD/sodipodi-0.dtd"
   xmlns="http://www.w3.org/2000/svg"
   xmlns:svg="http://www.w3.org/2000/svg">
  <sodipodi:namedview
     id="namedview1"
     pagecolor="#ffffff"
     bordercolor="#000000"
     borderopacity="0.25"
     inkscape:showpageshadow="2"
     inkscape:pageopacity="0.0"
     inkscape:pagecheckerboard="0"
     inkscape:deskcolor="#d1d1d1"
     inkscape:document-units="mm"
     showguides="true"
     inkscape:zoom="0.97035431"
     inkscape:cx="375.12071"
     inkscape:cy="122.12034"
     inkscape:window-width="1504"
     inkscape:window-height="916"
     inkscape:window-x="0"
     inkscape:window-y="38"
     inkscape:window-maximized="0"
     inkscape:current-layer="layer1"
     inkscape:export-bgcolor="#00001b00">
    <sodipodi:guide
       position="54.533345,62.20334"
       orientation="1,0"
       id="guide4"
       inkscape:locked="false" />
    <sodipodi:guide
       position="122.15469,59.476673"
       orientation="1,0"
       id="guide5"
       inkscape:locked="false" />
    <sodipodi:guide
       position="114.7853,262.66491"
       orientation="0,-1"
       id="guide6"
       inkscape:locked="false" />
    <sodipodi:guide
       position="126.19745,226.4315"
       orientation="0,-1"
       id="guide7"
       inkscape:locked="false" />
    <sodipodi:guide
       position="118.77956,272.0799"
       orientation="0,-1"
       id="guide8"
       inkscape:locked="false" />
    <sodipodi:guide
       position="63.25868,45.025338"
       orientation="1,0"
       id="guide9"
       inkscape:locked="false" />
    <sodipodi:guide
       position="130.88003,58.386006"
       orientation="1,0"
       id="guide10"
       inkscape:locked="false" />
    <sodipodi:guide
       position="38.609514,217.3018"
       orientation="0,-1"
       id="guide11"
       inkscape:locked="false" />
    <sodipodi:guide
       position="9.7939482,245.54684"
       orientation="1,0"
       id="guide12"
       inkscape:locked="false" />
    <sodipodi:guide
       position="1.2416988e-06,292.26034"
       orientation="1,0"
       id="guide24"
       inkscape:locked="false" />
    <sodipodi:guide
       position="-2.1813343,25.665995"
       orientation="0,-1"
       id="guide13"
       inkscape:locked="false" />
    <sodipodi:guide
       position="26.231526,31.995278"
       orientation="1,0"
       id="guide14"
       inkscape:locked="false" />
    <sodipodi:guide
       position="32.522826,28.689687"
       orientation="1,0"
       id="guide15"
       inkscape:locked="false" />
    <sodipodi:guide
       position="-5.4533324,14.214006"
       orientation="0,-1"
       id="guide1"
       inkscape:locked="false" />
    <sodipodi:guide
       position="-5.7259993,4.1253292"
       orientation="0,-1"
       id="guide2"
       inkscape:locked="false" />
  </sodipodi:namedview>
  <defs
     id="defs1">
    <inkscape:path-effect
       effect="mirror_symmetry"
       start_point="85.655886,66.481336"
       end_point="72.390334,104.5412"
       center_point="79.02311,85.511268"
       id="path-effect50"
       is_visible="true"
       lpeversion="1.2"
       lpesatellites=""
       mode="free"
       discard_orig_path="false"
       fuse_paths="false"
       oposite_fuse="false"
       split_items="false"
       split_open="false"
       link_styles="false" />
    <inkscape:path-effect
       effect="mirror_symmetry"
       start_point="85.655887,59.626129"
       end_point="72.390376,97.685887"
       center_point="79.023131,78.656008"
       id="path-effect17"
       is_visible="true"
       lpeversion="1.2"
       lpesatellites=""
       mode="vertical"
       discard_orig_path="false"
       fuse_paths="true"
       oposite_fuse="false"
       split_items="false"
       split_open="false"
       link_styles="false" />
    <inkscape:path-effect
       effect="mirror_symmetry"
       start_point="68.050738,65.446059"
       end_point="68.050738,105.94841"
       center_point="68.050738,85.697233"
       id="path-effect35"
       is_visible="true"
       lpeversion="1.2"
       lpesatellites=""
       mode="vertical"
       discard_orig_path="false"
       fuse_paths="false"
       oposite_fuse="false"
       split_items="false"
       split_open="false"
       link_styles="false" />
    <inkscape:path-effect
       effect="mirror_symmetry"
       start_point="4.8481326,94.277215"
       end_point="-22.849777,123.62293"
       center_point="-9.0008223,108.95007"
       id="path-effect34"
       is_visible="true"
       lpeversion="1.2"
       lpesatellites="#path35"
       mode="vertical"
       discard_orig_path="false"
       fuse_paths="true"
       oposite_fuse="false"
       split_items="true"
       split_open="false"
       link_styles="false" />
    <inkscape:path-effect
       effect="mirror_symmetry"
       start_point="68.050738,66.085852"
       end_point="68.050738,106.5882"
       center_point="68.050738,86.337026"
       id="path-effect32"
       is_visible="true"
       lpeversion="1.2"
       lpesatellites=""
       mode="vertical"
       discard_orig_path="false"
       fuse_paths="true"
       oposite_fuse="false"
       split_items="true"
       split_open="false"
       link_styles="false" />
    <inkscape:path-effect
       effect="mirror_symmetry"
       start_point="68.050738,65.446059"
       end_point="68.050738,105.94841"
       center_point="68.050738,85.697233"
       id="path-effect30"
       is_visible="true"
       lpeversion="1.2"
       lpesatellites="#path4"
       mode="vertical"
       discard_orig_path="false"
       fuse_paths="true"
       oposite_fuse="false"
       split_items="true"
       split_open="false"
       link_styles="false" />
    <inkscape:path-effect
       effect="mirror_symmetry"
       start_point="115.66963,67.862699"
       end_point="115.66963,89.872919"
       center_point="115.66963,78.867809"
       id="path-effect28"
       is_visible="true"
       lpeversion="1.2"
       lpesatellites=""
       mode="vertical"
       discard_orig_path="false"
       fuse_paths="true"
       oposite_fuse="false"
       split_items="false"
       split_open="false"
       link_styles="false" />
    <inkscape:path-effect
       effect="mirror_symmetry"
       start_point="68.050738,66.085852"
       end_point="68.050738,106.5882"
       center_point="68.050738,86.337026"
       id="path-effect15"
       is_visible="true"
       lpeversion="1.2"
       lpesatellites=""
       mode="vertical"
       discard_orig_path="false"
       fuse_paths="true"
       oposite_fuse="false"
       split_items="false"
       split_open="false"
       link_styles="false" />
    <inkscape:path-effect
       effect="mirror_symmetry"
       start_point="68.050738,65.446059"
       end_point="68.050738,105.94841"
       center_point="68.050738,85.697233"
       id="path-effect14"
       is_visible="true"
       lpeversion="1.2"
       lpesatellites=""
       mode="vertical"
       discard_orig_path="false"
       fuse_paths="true"
       oposite_fuse="false"
       split_items="false"
       split_open="false"
       link_styles="false" />
    <inkscape:path-effect
       effect="mirror_symmetry"
       start_point="68.050739,58.590857"
       end_point="68.050739,99.093205"
       center_point="68.050739,78.842031"
       id="path-effect13"
       is_visible="true"
       lpeversion="1.2"
       lpesatellites=""
       mode="vertical"
       discard_orig_path="false"
       fuse_paths="true"
       oposite_fuse="false"
       split_items="false"
       split_open="false"
       link_styles="false" />
    <inkscape:path-effect
       effect="mirror_symmetry"
       start_point="4.8481326,94.277215"
       end_point="-22.849777,123.62293"
       center_point="-9.0008223,108.95007"
       id="path-effect12"
       is_visible="true"
       lpeversion="1.2"
       lpesatellites=""
       mode="vertical"
       discard_orig_path="false"
       fuse_paths="true"
       oposite_fuse="false"
       split_items="false"
       split_open="false"
       link_styles="false" />
    <inkscape:path-effect
       effect="mirror_symmetry"
       start_point="4.8481326,94.277215"
       end_point="-22.849777,123.62293"
       center_point="-9.0008223,108.95007"
       id="path-effect11"
       is_visible="true"
       lpeversion="1.2"
       lpesatellites=""
       mode="vertical"
       discard_orig_path="false"
       fuse_paths="true"
       oposite_fuse="false"
       split_items="false"
       split_open="false"
       link_styles="false" />
    <inkscape:path-effect
       effect="mirror_symmetry"
       start_point="49.853874,66.703134"
       end_point="64.636162,104.41154"
       center_point="57.245018,85.557337"
       id="path-effect2"
       is_visible="true"
       lpeversion="1.2"
       lpesatellites=""
       mode="vertical"
       discard_orig_path="true"
       fuse_paths="false"
       oposite_fuse="false"
       split_items="false"
       split_open="false"
       link_styles="false" />
  </defs>
  <g
     inkscape:label="Layer 1"
     inkscape:groupmode="layer"
     id="layer1"
     transform="translate(-38.707493,-50.863567)">
    <rect
       style="fill:none;fill-opacity:1;stroke-width:0.118187"
       id="rect24"
       width="58.327812"
       height="54.702328"
       x="38.707493"
       y="50.863567"
       inkscape:label="canvas" />
    <path
       style="display:none;fill:#ffffcc;fill-opacity:1;stroke:none;stroke-width:0.05616;stroke-dasharray:none;stroke-opacity:1"
       id="path2"
       sodipodi:type="arc"
       sodipodi:cx="67.871399"
       sodipodi:cy="78.214729"
       sodipodi:rx="22.579681"
       sodipodi:ry="11.27166"
       sodipodi:start="0"
       sodipodi:end="6.2589487"
       sodipodi:open="true"
       sodipodi:arc-type="arc"
       d="M 90.45108,78.214729 A 22.579681,11.27166 0 0 1 68.008212,89.486182 22.579681,11.27166 0 0 1 45.293375,78.351319 22.579681,11.27166 0 0 1 67.46098,66.944932 22.579681,11.27166 0 0 1 90.444449,77.941569" />
    <g
       id="g21"
       inkscape:label="big bear"
       transform="translate(0,3.1989665)"
       style="display:none">
      <path
         style="fill:#a05a2c;stroke-width:0.151961"
         id="path12"
         sodipodi:type="arc"
         sodipodi:cx="68.027367"
         sodipodi:cy="81.01738"
         sodipodi:rx="19.525928"
         sodipodi:ry="15.380295"
         sodipodi:start="0"
         sodipodi:end="6.2589487"
         sodipodi:open="true"
         sodipodi:arc-type="arc"
         d="M 87.553295,81.01738 A 19.525928,15.380295 0 0 1 68.145676,96.397392 19.525928,15.380295 0 0 1 48.502872,81.203758 19.525928,15.380295 0 0 1 67.672454,65.639626 19.525928,15.380295 0 0 1 87.547561,80.64465"
         inkscape:label="body" />
      <path
         style="fill:#a05a2c;fill-opacity:1;stroke-width:0.165"
         id="path15"
         sodipodi:type="arc"
         sodipodi:cx="68.137978"
         sodipodi:cy="66.698448"
         sodipodi:rx="9.2770023"
         sodipodi:ry="6.5578814"
         sodipodi:start="0"
         sodipodi:end="6.2589487"
         sodipodi:open="true"
         sodipodi:arc-type="arc"
         d="m 77.41498,66.698448 a 9.2770023,6.5578814 0 0 1 -9.220792,6.557761 9.2770023,6.5578814 0 0 1 -9.332532,-6.478292 9.2770023,6.5578814 0 0 1 9.107699,-6.636267 9.2770023,6.5578814 0 0 1 9.4429,6.397873"
         inkscape:label="head" />
      <path
         style="fill:#a05a2c;fill-opacity:1;stroke-width:0.165"
         id="path16"
         sodipodi:type="arc"
         sodipodi:cx="60.300518"
         sodipodi:cy="62.593113"
         sodipodi:rx="2.399225"
         sodipodi:ry="2.3459086"
         sodipodi:start="0"
         sodipodi:end="6.2589487"
         sodipodi:open="true"
         sodipodi:arc-type="arc"
         d="m 62.699743,62.593113 a 2.399225,2.3459086 0 0 1 -2.384688,2.345866 2.399225,2.3459086 0 0 1 -2.413586,-2.317438 2.399225,2.3459086 0 0 1 2.35544,-2.373949 2.399225,2.3459086 0 0 1 2.442129,2.28867"
         inkscape:label="ear left" />
      <path
         style="fill:#a05a2c;fill-opacity:1;stroke-width:0.165"
         id="path16-7"
         sodipodi:type="arc"
         sodipodi:cx="76.135399"
         sodipodi:cy="62.806377"
         sodipodi:rx="2.399225"
         sodipodi:ry="2.3459086"
         sodipodi:start="0"
         sodipodi:end="6.2589487"
         sodipodi:open="true"
         sodipodi:arc-type="arc"
         d="m 78.534624,62.806377 a 2.399225,2.3459086 0 0 1 -2.384688,2.345866 2.399225,2.3459086 0 0 1 -2.413586,-2.317438 2.399225,2.3459086 0 0 1 2.355439,-2.373949 2.399225,2.3459086 0 0 1 2.44213,2.28867"
         inkscape:label="ear right" />
      <path
         style="display:inline;fill:#ffffff;fill-opacity:1;stroke-width:0.165"
         id="path20"
         sodipodi:type="arc"
         sodipodi:cx="68.404572"
         sodipodi:cy="70.11068"
         sodipodi:rx="2.1859605"
         sodipodi:ry="1.3329027"
         sodipodi:start="0"
         sodipodi:end="6.2589487"
         sodipodi:open="true"
         sodipodi:arc-type="arc"
         d="m 70.590532,70.11068 a 2.1859605,1.3329027 0 0 1 -2.172715,1.332878 2.1859605,1.3329027 0 0 1 -2.199045,-1.316726 2.1859605,1.3329027 0 0 1 2.146067,-1.348835 2.1859605,1.3329027 0 0 1 2.225051,1.300381"
         inkscape:label="nose" />
      <path
         style="fill:#a05a2c;fill-opacity:1;stroke-width:0.165"
         id="path21"
         sodipodi:type="arc"
         sodipodi:cx="70.483894"
         sodipodi:cy="72.03006"
         sodipodi:rx="2.1326442"
         sodipodi:ry="2.1859605"
         sodipodi:start="0"
         sodipodi:end="6.2589487"
         sodipodi:open="true"
         sodipodi:arc-type="arc"
         d="m 72.616539,72.03006 a 2.1326442,2.1859605 0 0 1 -2.119723,2.18592 2.1326442,2.1859605 0 0 1 -2.145409,-2.159431 2.1326442,2.1859605 0 0 1 2.093723,-2.212089 2.1326442,2.1859605 0 0 1 2.170782,2.132625"
         inkscape:label="cheek right" />
      <path
         style="fill:#a05a2c;fill-opacity:1;stroke-width:0.165"
         id="path21-4"
         sodipodi:type="arc"
         sodipodi:cx="66.218605"
         sodipodi:cy="71.976753"
         sodipodi:rx="2.1326442"
         sodipodi:ry="2.1859605"
         sodipodi:start="0"
         sodipodi:end="6.2589487"
         sodipodi:open="true"
         sodipodi:arc-type="arc"
         d="m 68.351249,71.976753 a 2.1326442,2.1859605 0 0 1 -2.119722,2.185921 2.1326442,2.1859605 0 0 1 -2.14541,-2.159431 2.1326442,2.1859605 0 0 1 2.093724,-2.212089 2.1326442,2.1859605 0 0 1 2.170782,2.132624"
         inkscape:label="cheek left" />
    </g>
    <g
       id="g23"
       inkscape:label="little bear"
       transform="matrix(1.4117509,0,0,1.3519175,-28.294697,-37.614105)"
       style="display:none;stroke:none;stroke-opacity:1">
      <path
         style="fill:#dcb06f;fill-opacity:1;stroke:none;stroke-width:0.157321;stroke-opacity:1"
         id="path13-5"
         sodipodi:type="arc"
         sodipodi:cx="68.137985"
         sodipodi:cy="84.026184"
         sodipodi:rx="5.918088"
         sodipodi:ry="5.3316107"
         sodipodi:start="0"
         sodipodi:end="6.2589487"
         sodipodi:open="true"
         sodipodi:arc-type="arc"
         inkscape:label="head"
         d="m 74.056073,84.026184 a 5.918088,5.3316107 0 0 1 -5.882229,5.331513 5.918088,5.3316107 0 0 1 -5.953512,-5.266904 5.918088,5.3316107 0 0 1 5.810083,-5.395339 5.918088,5.3316107 0 0 1 6.02392,5.201523" />
      <path
         style="fill:#dcb06f;fill-opacity:1;stroke:none;stroke-width:0.151415;stroke-opacity:1"
         id="path14-4-5-8"
         sodipodi:type="arc"
         sodipodi:cx="107.86075"
         sodipodi:cy="-2.9843154"
         sodipodi:rx="2.0882607"
         sodipodi:ry="1.698864"
         sodipodi:start="0"
         sodipodi:end="6.2589487"
         sodipodi:open="true"
         sodipodi:arc-type="arc"
         inkscape:label="ear right"
         transform="matrix(0.65038248,0.75960689,-0.75479182,0.65596441,0,0)"
         d="m 109.94901,-2.9843154 a 2.0882607,1.698864 0 0 1 -2.07561,1.6988328 2.0882607,1.698864 0 0 1 -2.10076,-1.6782459 2.0882607,1.698864 0 0 1 2.05015,-1.7191702 2.0882607,1.698864 0 0 1 2.12561,1.6574126" />
      <circle
         style="display:none;fill:#ffaaaa;fill-opacity:1;stroke:none;stroke-width:0.264583;stroke-opacity:1"
         id="path1"
         cx="63.840744"
         cy="78.91703"
         r="0.85305774"
         inkscape:label="blush left"
         transform="translate(-9.1666666e-7,6.8552016)" />
      <circle
         style="display:none;fill:#ffaaaa;fill-opacity:1;stroke:none;stroke-width:0.264583;stroke-opacity:1"
         id="path1-4"
         cx="72.509903"
         cy="85.782158"
         r="0.85305774"
         inkscape:label="blush right" />
      <g
         id="g1"
         inkscape:label="face"
         style="stroke:none;stroke-opacity:1">
        <path
           style="fill:#a05a2c;fill-opacity:1;stroke:none;stroke-width:0.198997;stroke-opacity:1"
           id="path17-8-4"
           sodipodi:type="arc"
           sodipodi:cx="64.832397"
           sodipodi:cy="84.186134"
           sodipodi:rx="0.58647716"
           sodipodi:ry="0.85305768"
           sodipodi:start="0"
           sodipodi:end="6.2589487"
           sodipodi:open="true"
           sodipodi:arc-type="arc"
           inkscape:label="eye left"
           d="m 65.418875,84.186134 a 0.58647716,0.85305768 0 0 1 -0.582924,0.853042 0.58647716,0.85305768 0 0 1 -0.589988,-0.842704 0.58647716,0.85305768 0 0 1 0.575774,-0.863254 0.58647716,0.85305768 0 0 1 0.596965,0.832243" />
        <path
           style="fill:#a05a2c;fill-opacity:1;stroke:none;stroke-width:0.198997;stroke-opacity:1"
           id="path17-8-4-5"
           sodipodi:type="arc"
           sodipodi:cx="71.420197"
           sodipodi:cy="84.163361"
           sodipodi:rx="0.58647716"
           sodipodi:ry="0.85305768"
           sodipodi:start="0"
           sodipodi:end="6.2589487"
           sodipodi:open="true"
           sodipodi:arc-type="arc"
           inkscape:label="eye right"
           d="m 72.006674,84.163361 a 0.58647716,0.85305768 0 0 1 -0.582924,0.853042 0.58647716,0.85305768 0 0 1 -0.589988,-0.842705 0.58647716,0.85305768 0 0 1 0.575774,-0.863254 0.58647716,0.85305768 0 0 1 0.596965,0.832243" />
        <g
           id="g22"
           transform="translate(0,-0.6397933)"
           inkscape:label="nose"
           style="stroke:none;stroke-opacity:1">
          <path
             style="display:inline;fill:#a05a2c;fill-opacity:1;stroke:none;stroke-width:0.165;stroke-opacity:1"
             id="path18"
             sodipodi:type="arc"
             sodipodi:cx="68.137985"
             sodipodi:cy="86.585365"
             sodipodi:rx="1.5994833"
             sodipodi:ry="1.492851"
             sodipodi:start="0"
             sodipodi:end="6.2589487"
             sodipodi:open="true"
             sodipodi:arc-type="arc"
             inkscape:label="nose"
             d="m 69.737468,86.585365 a 1.5994833,1.492851 0 0 1 -1.589791,1.492824 1.5994833,1.492851 0 0 1 -1.609058,-1.474733 1.5994833,1.492851 0 0 1 1.570293,-1.510695 1.5994833,1.492851 0 0 1 1.628087,1.456426" />
          <path
             style="display:inline;fill:#dcb06f;fill-opacity:1;stroke:none;stroke-width:0.188443;stroke-opacity:1"
             id="path19"
             sodipodi:type="arc"
             sodipodi:cx="66.538498"
             sodipodi:cy="87.385094"
             sodipodi:rx="1.7594316"
             sodipodi:ry="1.5994833"
             sodipodi:start="0"
             sodipodi:end="6.2589487"
             sodipodi:open="true"
             sodipodi:arc-type="arc"
             inkscape:label="cheek left"
             d="m 68.29793,87.385094 a 1.7594316,1.5994833 0 0 1 -1.748771,1.599454 1.7594316,1.5994833 0 0 1 -1.769963,-1.580072 1.7594316,1.5994833 0 0 1 1.727322,-1.618601 1.7594316,1.5994833 0 0 1 1.790895,1.560456" />
          <path
             style="display:inline;fill:#dcb06f;fill-opacity:1;stroke:none;stroke-width:0.188443;stroke-opacity:1"
             id="path19-2"
             sodipodi:type="arc"
             sodipodi:cx="69.737473"
             sodipodi:cy="87.385094"
             sodipodi:rx="1.7594316"
             sodipodi:ry="1.5994831"
             sodipodi:start="0"
             sodipodi:end="6.2589487"
             sodipodi:open="true"
             sodipodi:arc-type="arc"
             inkscape:label="cheek right"
             d="m 71.496904,87.385094 a 1.7594316,1.5994831 0 0 1 -1.748771,1.599453 1.7594316,1.5994831 0 0 1 -1.769963,-1.580071 1.7594316,1.5994831 0 0 1 1.727322,-1.618601 1.7594316,1.5994831 0 0 1 1.790895,1.560456" />
        </g>
      </g>
      <path
         style="fill:#dcb06f;fill-opacity:1;stroke:none;stroke-width:0.151415;stroke-opacity:1"
         id="path14-4-5"
         sodipodi:type="arc"
         sodipodi:cx="-7.9404101"
         sodipodi:cy="101.81573"
         sodipodi:rx="2.0866742"
         sodipodi:ry="1.7001563"
         sodipodi:start="0"
         sodipodi:end="6.2589487"
         sodipodi:open="true"
         sodipodi:arc-type="arc"
         inkscape:label="ear left"
         transform="matrix(0.72452354,-0.68925006,0.68384044,0.72963159,0,0)"
         d="m -5.8537359,101.81573 a 2.0866742,1.7001563 0 0 1 -2.0740308,1.70012 2.0866742,1.7001563 0 0 1 -2.0991643,-1.67952 2.0866742,1.7001563 0 0 1 2.0485925,-1.72048 2.0866742,1.7001563 0 0 1 2.1239897,1.65868" />
    </g>
    <text
       xml:space="preserve"
       style="font-style:normal;font-variant:normal;font-weight:normal;font-stretch:normal;font-size:8.10679px;font-family:'Darumadrop One';-inkscape-font-specification:'Darumadrop One';display:none;fill:#808080;stroke-width:0.180556"
       x="88.266632"
       y="105.21178"
       id="text4"
       transform="scale(1.0942808,0.91384221)"
       inkscape:label="preschool"><tspan
         sodipodi:role="line"
         id="tspan4"
         style="font-style:normal;font-variant:normal;font-weight:normal;font-stretch:normal;font-size:8.10679px;font-family:'Darumadrop One';-inkscape-font-specification:'Darumadrop One';fill:#808080;stroke-width:0.180556"
         x="0"
         y="0">PRESCHOOL</tspan></text>
    <text
       xml:space="preserve"
       style="font-style:normal;font-variant:normal;font-weight:normal;font-stretch:normal;font-size:22.5792px;font-family:'Darumadrop One';-inkscape-font-specification:'Darumadrop One';fill:#01a9f9;stroke-width:0.195569"
       x="154.98424"
       y="78.155258"
       id="text3"
       inkscape:label="bears"
       transform="scale(1.0871038,0.91987537)"><tspan
         sodipodi:role="line"
         id="tspan3"
         style="stroke-width:0.195569"
         x="154.98424"
         y="78.155258">Bears</tspan></text>
    <text
       xml:space="preserve"
       style="font-size:23.9967px;fill:#01a9f9;stroke-width:0.207848"
       x="95.767006"
       y="76.65937"
       id="text1"
       transform="scale(1.0548093,0.94803866)"
       inkscape:label="little"><tspan
         sodipodi:role="line"
         style="font-style:normal;font-variant:normal;font-weight:normal;font-stretch:normal;font-size:23.9967px;font-family:'Darumadrop One';-inkscape-font-specification:'Darumadrop One';stroke-width:0.207848"
         x="95.767006"
         y="76.65937"
         id="tspan2"><tspan
   style="fill:#ff3333;fill-opacity:1;stroke-width:0.207848"
   id="tspan5">L</tspan><tspan
   style="fill:#ff923b;fill-opacity:1;stroke-width:0.207848"
   id="tspan6">i</tspan><tspan
   style="fill:#edde00;fill-opacity:1;stroke-width:0.207848"
   id="tspan7">t</tspan><tspan
   style="fill:#00d242;fill-opacity:1;stroke-width:0.207848"
   id="tspan8">t</tspan>l<tspan
   style="fill:#cb5ce3;fill-opacity:1;stroke-width:0.207848"
   id="tspan9">e</tspan></tspan></text>
    <g
       id="g27"
       inkscape:label="little bear fixed"
       transform="matrix(1.4117509,0,0,1.3519175,-28.089209,-50.148871)"
       style="display:inline;stroke:none;stroke-opacity:1"
       inkscape:tile-cx="29.068503"
       inkscape:tile-cy="24.553541"
       inkscape:tile-w="16.991078"
       inkscape:tile-h="15.546307"
       inkscape:tile-x0="20.572964"
       inkscape:tile-y0="16.780388">
      <path
         style="fill:#dcb06f;fill-opacity:1;stroke:none;stroke-width:0.157321;stroke-opacity:1"
         id="path17"
         sodipodi:type="arc"
         sodipodi:cx="68.118317"
         sodipodi:cy="84.026184"
         sodipodi:rx="5.918088"
         sodipodi:ry="5.3316107"
         sodipodi:start="0"
         sodipodi:end="6.2589487"
         sodipodi:open="true"
         sodipodi:arc-type="arc"
         inkscape:label="head"
         d="m 74.036405,84.026184 a 5.918088,5.3316107 0 0 1 -5.88223,5.331513 5.918088,5.3316107 0 0 1 -5.953512,-5.266904 5.918088,5.3316107 0 0 1 5.810084,-5.395339 5.918088,5.3316107 0 0 1 6.02392,5.201523" />
      <path
         style="display:none;fill:#ffaaaa;fill-opacity:1;stroke:none;stroke-width:0.264583;stroke-opacity:1"
         id="path22"
         inkscape:label="blush"
         transform="translate(-9.1666666e-7,6.8552016)"
         inkscape:path-effect="#path-effect28"
         sodipodi:type="arc"
         sodipodi:cx="63.840744"
         sodipodi:cy="78.91703"
         sodipodi:rx="0.85305774"
         sodipodi:ry="0.85305774"
         d="m 64.693802,78.91703 c 0,0.471131 -0.381927,0.853058 -0.853058,0.853058 -0.471131,0 -0.853058,-0.381927 -0.853058,-0.853058 0,-0.47113 0.381927,-0.853057 0.853058,-0.853057 0.471131,0 0.853058,0.381927 0.853058,0.853057 z m 101.951658,0 c 0,0.471131 0.38192,0.853058 0.85305,0.853058 0.47114,0 0.85306,-0.381927 0.85306,-0.853058 0,-0.47113 -0.38192,-0.853057 -0.85306,-0.853057 -0.47113,0 -0.85305,0.381927 -0.85305,0.853057 z" />
      <g
         id="g26"
         inkscape:label="face"
         style="stroke:none;stroke-opacity:1">
        <path
           id="path4"
           d="m 65.418875,84.186134 c 0,0.469114 -0.260414,0.8502 -0.582924,0.853042 -0.32251,0.0028 -0.586079,-0.373625 -0.589988,-0.842704 -0.0039,-0.469079 0.253312,-0.854728 0.575774,-0.863254 0.322463,-0.0085 0.589149,0.363267 0.596965,0.832243"
           style="fill:#a05a2c;fill-opacity:1;stroke:none;stroke-width:0.198997;stroke-opacity:1"
           transform="matrix(-0.99999999,0,0,0.99999999,136.10148,-6.1640819e-8)"
           inkscape:label="R eye" />
        <path
           id="path23"
           d="m 65.418875,84.186134 c 0,0.469114 -0.260414,0.8502 -0.582924,0.853042 -0.32251,0.0028 -0.586079,-0.373625 -0.589988,-0.842704 -0.0039,-0.469079 0.253312,-0.854728 0.575774,-0.863254 0.322463,-0.0085 0.589149,0.363267 0.596965,0.832243"
           style="fill:#a05a2c;fill-opacity:1;stroke:none;stroke-width:0.198997;stroke-opacity:1"
           inkscape:label="L eye" />
        <g
           id="g25"
           transform="translate(0,-0.6397933)"
           inkscape:label="nose"
           style="stroke:none;stroke-opacity:1">
          <path
             style="display:inline;fill:#a05a2c;fill-opacity:1;stroke:none;stroke-width:0.165;stroke-opacity:1"
             id="path24"
             sodipodi:type="arc"
             sodipodi:cx="68.118317"
             sodipodi:cy="86.585365"
             sodipodi:rx="1.5994833"
             sodipodi:ry="1.492851"
             sodipodi:start="0"
             sodipodi:end="6.2589487"
             sodipodi:open="true"
             sodipodi:arc-type="arc"
             inkscape:label="nose"
             d="m 69.7178,86.585365 a 1.5994833,1.492851 0 0 1 -1.589792,1.492824 1.5994833,1.492851 0 0 1 -1.609057,-1.474733 1.5994833,1.492851 0 0 1 1.570293,-1.510695 1.5994833,1.492851 0 0 1 1.628086,1.456426" />
          <path
             id="path25"
             d="m 68.050738,88.203099 c -0.305151,0.465238 -0.86276,0.77793 -1.501579,0.781449 -0.967529,0.0053 -1.758239,-0.700549 -1.769963,-1.580072 -0.01172,-0.879523 0.759935,-1.602614 1.727322,-1.618601 0.653932,-0.01081 1.231406,0.304235 1.54422,0.781144"
             style="display:inline;fill:#dcb06f;fill-opacity:1;stroke:none;stroke-width:0.188443;stroke-opacity:1"
             inkscape:label="L cheek" />
          <path
             id="path38"
             d="m 68.050738,88.203099 c -0.305151,0.465238 -0.86276,0.77793 -1.501579,0.781449 -0.967529,0.0053 -1.758239,-0.700549 -1.769963,-1.580072 -0.01172,-0.879523 0.759935,-1.602614 1.727322,-1.618601 0.653932,-0.01081 1.231406,0.304235 1.54422,0.781144"
             style="display:inline;fill:#dcb06f;fill-opacity:1;stroke:none;stroke-width:0.188443;stroke-opacity:1"
             transform="matrix(-1,0,0,1,136.10148,0)"
             inkscape:label="R cheek" />
        </g>
      </g>
      <path
         transform="matrix(-0.72452354,-0.6886277,-0.68384044,0.730219,136.0339,-0.05839701)"
         id="path35"
         d="m -5.8537359,101.81573 c 0,0.93495 -0.926548,1.69446 -2.0740308,1.70012 -1.1474828,0.006 -2.0852593,-0.74464 -2.0991643,-1.67952 -0.01391,-0.93488 0.9012782,-1.70348 2.0485925,-1.72048 1.1473143,-0.017 2.0961809,0.724 2.1239897,1.65868"
         style="fill:#dcb06f;fill-opacity:1;stroke:none;stroke-width:0.151415;stroke-opacity:1"
         inkscape:label="right ear" />
      <path
         id="path26"
         transform="matrix(0.72452354,-0.68925006,0.68384044,0.72963159,0.06757949,0)"
         d="m -5.8537359,101.81573 c 0,0.93495 -0.926548,1.69446 -2.0740308,1.70012 -1.1474828,0.006 -2.0852593,-0.74464 -2.0991643,-1.67952 -0.01391,-0.93488 0.9012782,-1.70348 2.0485925,-1.72048 1.1473143,-0.017 2.0961809,0.724 2.1239897,1.65868"
         style="fill:#dcb06f;fill-opacity:1;stroke:none;stroke-width:0.151415;stroke-opacity:1"
         inkscape:label="left ear" />
    </g>
    <g
       id="g14"
       inkscape:label="little bear fixed side"
       transform="matrix(1.3266119,-0.48284725,0.46238302,1.2703869,-76.390475,-4.7695019)"
       style="display:inline;stroke:none;stroke-opacity:1"
       inkscape:path-effect="#path-effect50">
      <path
         style="fill:#dcb06f;fill-opacity:1;stroke:none;stroke-width:0.157321;stroke-opacity:1"
         id="path5"
         sodipodi:type="arc"
         sodipodi:cx="68.118317"
         sodipodi:cy="84.026184"
         sodipodi:rx="5.918088"
         sodipodi:ry="5.3316107"
         sodipodi:start="0"
         sodipodi:end="6.2589487"
         sodipodi:open="true"
         sodipodi:arc-type="arc"
         inkscape:label="head"
         d="m 74.036405,84.026184 c 0,2.931959 -2.627815,5.313748 -5.88223,5.331513 -3.254415,0.01776 -5.914074,-2.33516 -5.953512,-5.266904 -0.03944,-2.931744 2.556147,-5.342046 5.810084,-5.395339 3.253937,-0.05329 5.94505,2.270424 6.02392,5.201523 m 9.817887,3.550571 c -1.82244,2.296758 -1.244401,5.795929 1.293911,7.832716 2.538312,2.036788 6.084289,1.846802 7.937489,-0.425274 1.8532,-2.272076 1.318132,-5.773549 -1.197723,-7.83787 -2.515855,-2.064321 -6.068316,-1.916767 -7.952003,0.330293" />
      <g
         id="g12"
         inkscape:label="face"
         style="stroke:none;stroke-opacity:1">
        <path
           id="path7"
           d="m 65.418875,84.186134 c 0,0.469114 -0.260414,0.8502 -0.582924,0.853042 -0.32251,0.0028 -0.586079,-0.373625 -0.589988,-0.842704 -0.0039,-0.469079 0.253312,-0.854728 0.575774,-0.863254 0.322463,-0.0085 0.589149,0.363267 0.596965,0.832243 m -15.697562,5.49203 c 0.291591,0.367482 0.732461,0.504139 0.986867,0.305901 0.254379,-0.198272 0.22687,-0.656974 -0.06164,-1.026858 -0.288514,-0.369879 -0.729713,-0.512101 -0.987614,-0.318344 -0.257885,0.193777 -0.235712,0.650768 0.04967,1.023"
           style="fill:#a05a2c;fill-opacity:1;stroke:none;stroke-width:0.198997;stroke-opacity:1"
           transform="matrix(-0.99999999,0,0,0.99999999,136.10148,-6.1640819e-8)"
           inkscape:label="R eye"
           inkscape:original-d="m 65.418875,84.186134 c 0,0.469114 -0.260414,0.8502 -0.582924,0.853042 -0.32251,0.0028 -0.586079,-0.373625 -0.589988,-0.842704 -0.0039,-0.469079 0.253312,-0.854728 0.575774,-0.863254 0.322463,-0.0085 0.589149,0.363267 0.596965,0.832243" />
        <path
           id="path8"
           d="m 65.418875,84.186134 c 0,0.469114 -0.260414,0.8502 -0.582924,0.853042 -0.32251,0.0028 -0.586079,-0.373625 -0.589988,-0.842704 -0.0039,-0.469079 0.253312,-0.854728 0.575774,-0.863254 0.322463,-0.0085 0.589149,0.363267 0.596965,0.832243 m 25.084995,8.763847 c -0.291591,0.367482 -0.324469,0.827874 -0.0736,1.030565 0.250899,0.202658 0.691344,0.07161 0.985975,-0.293411 0.294624,-0.36503 0.332847,-0.827007 0.08554,-1.034121 -0.247319,-0.207094 -0.68731,-0.08163 -0.984938,0.28088"
           style="fill:#a05a2c;fill-opacity:1;stroke:none;stroke-width:0.198997;stroke-opacity:1"
           inkscape:label="L eye"
           inkscape:original-d="m 65.418875,84.186134 c 0,0.469114 -0.260414,0.8502 -0.582924,0.853042 -0.32251,0.0028 -0.586079,-0.373625 -0.589988,-0.842704 -0.0039,-0.469079 0.253312,-0.854728 0.575774,-0.863254 0.322463,-0.0085 0.589149,0.363267 0.596965,0.832243" />
        <g
           id="g11"
           transform="translate(0,-0.6397933)"
           inkscape:label="nose"
           style="stroke:none;stroke-opacity:1">
          <path
             style="display:inline;fill:#a05a2c;fill-opacity:1;stroke:none;stroke-width:0.165;stroke-opacity:1"
             id="path9"
             sodipodi:type="arc"
             sodipodi:cx="68.118317"
             sodipodi:cy="86.585365"
             sodipodi:rx="1.5994833"
             sodipodi:ry="1.492851"
             sodipodi:start="0"
             sodipodi:end="6.2589487"
             sodipodi:open="true"
             sodipodi:arc-type="arc"
             inkscape:label="nose"
             d="m 69.7178,86.585365 c 0,0.820949 -0.71022,1.48785 -1.589792,1.492824 -0.879572,0.005 -1.598398,-0.653845 -1.609057,-1.474733 -0.01066,-0.820889 0.69085,-1.495773 1.570293,-1.510695 0.879442,-0.01492 1.60677,0.635719 1.628086,1.456426 m 16.325166,5.726059 c -0.510283,0.643093 -0.368461,1.606968 0.317462,2.157587 0.685923,0.550618 1.658525,0.481337 2.17712,-0.155083 0.518595,-0.63642 0.388559,-1.601134 -0.291079,-2.159465 -0.679639,-0.558331 -1.653816,-0.500741 -2.180648,0.128913" />
          <path
             id="path10"
             d="m 68.050738,88.203099 c -0.305151,0.465238 -0.86276,0.77793 -1.501579,0.781449 -0.967529,0.0053 -1.758239,-0.700549 -1.769963,-1.580072 -0.01172,-0.879523 0.759935,-1.602614 1.727322,-1.618601 0.653932,-0.01081 1.231406,0.304235 1.54422,0.781144 m 18.292108,8.011692 c -0.05014,0.55412 0.192302,1.145665 0.690535,1.545497 0.754622,0.605547 1.812767,0.544105 2.368642,-0.137584 0.555873,-0.681692 0.400852,-1.72777 -0.347016,-2.3416 -0.50554,-0.414937 -1.153731,-0.527091 -1.69521,-0.347941"
             style="display:inline;fill:#dcb06f;fill-opacity:1;stroke:none;stroke-width:0.188443;stroke-opacity:1"
             inkscape:label="L cheek"
             inkscape:original-d="m 68.050738,88.203099 c -0.305151,0.465238 -0.86276,0.77793 -1.501579,0.781449 -0.967529,0.0053 -1.758239,-0.700549 -1.769963,-1.580072 -0.01172,-0.879523 0.759935,-1.602614 1.727322,-1.618601 0.653932,-0.01081 1.231406,0.304235 1.54422,0.781144" />
          <path
             id="path11"
             d="m 68.050738,88.203099 c -0.305151,0.465238 -0.86276,0.77793 -1.501579,0.781449 -0.967529,0.0053 -1.758239,-0.700549 -1.769963,-1.580072 -0.01172,-0.879523 0.759935,-1.602614 1.727322,-1.618601 0.653932,-0.01081 1.231406,0.304235 1.54422,0.781144 m -18.292101,8.011689 c 0.528222,0.17477 1.159389,0.07312 1.661997,-0.321198 0.761211,-0.597242 0.941876,-1.641658 0.404368,-2.337922 -0.537511,-0.696262 -1.591446,-0.783054 -2.359188,-0.194271 -0.518979,0.398001 -0.77552,1.003737 -0.724128,1.571763"
             style="display:inline;fill:#dcb06f;fill-opacity:1;stroke:none;stroke-width:0.188443;stroke-opacity:1"
             transform="matrix(-1,0,0,1,136.10148,0)"
             inkscape:label="R cheek"
             inkscape:original-d="m 68.050738,88.203099 c -0.305151,0.465238 -0.86276,0.77793 -1.501579,0.781449 -0.967529,0.0053 -1.758239,-0.700549 -1.769963,-1.580072 -0.01172,-0.879523 0.759935,-1.602614 1.727322,-1.618601 0.653932,-0.01081 1.231406,0.304235 1.54422,0.781144" />
        </g>
      </g>
      <path
         transform="matrix(-0.72452354,-0.6886277,-0.68384044,0.730219,136.0339,-0.05839701)"
         id="path13"
         d="m -5.8537359,101.81573 c 0,0.93495 -0.926548,1.69446 -2.0740308,1.70012 -1.1474828,0.006 -2.0852593,-0.74464 -2.0991643,-1.67952 -0.01391,-0.93488 0.9012782,-1.70348 2.0485925,-1.72048 1.1473143,-0.017 2.0961809,0.724 2.1239897,1.65868 M -24.647397,93.353856 c -0.693354,0.622766 -0.639434,1.823733 0.120701,2.688301 0.759884,0.864795 1.941204,1.068281 2.643769,0.455993 0.702568,-0.612285 0.662956,-1.810785 -0.08866,-2.68278 -0.751614,-0.871996 -1.933172,-1.090222 -2.64485,-0.488497"
         style="fill:#dcb06f;fill-opacity:1;stroke:none;stroke-width:0.151415;stroke-opacity:1"
         inkscape:label="right ear"
         inkscape:original-d="m -5.8537359,101.81573 c 0,0.93495 -0.926548,1.69446 -2.0740308,1.70012 -1.1474828,0.006 -2.0852593,-0.74464 -2.0991643,-1.67952 -0.01391,-0.93488 0.9012782,-1.70348 2.0485925,-1.72048 1.1473143,-0.017 2.0961809,0.724 2.1239897,1.65868" />
      <path
         id="path14"
         transform="matrix(0.72452354,-0.68925006,0.68384044,0.72963159,0.06757949,0)"
         d="m -5.8537359,101.81573 c 0,0.93495 -0.926548,1.69446 -2.0740308,1.70012 -1.1474828,0.006 -2.0852593,-0.74464 -2.0991643,-1.67952 -0.01391,-0.93488 0.9012782,-1.70348 2.0485925,-1.72048 1.1473143,-0.017 2.0961809,0.724 2.1239897,1.65868 M 8.2317976,128.8174 c -0.7684954,-0.53824 -1.9261876,-0.22183 -2.5914315,0.70827 -0.6655234,0.92991 -0.5883905,2.12482 0.1720424,2.67433 0.76043,0.54952 1.9190541,0.24758 2.5935221,-0.67586 0.674468,-0.92343 0.6116433,-2.12182 -0.1406209,-2.68253"
         style="fill:#dcb06f;fill-opacity:1;stroke:none;stroke-width:0.151415;stroke-opacity:1"
         inkscape:label="left ear"
         inkscape:original-d="m -5.8537359,101.81573 c 0,0.93495 -0.926548,1.69446 -2.0740308,1.70012 -1.1474828,0.006 -2.0852593,-0.74464 -2.0991643,-1.67952 -0.01391,-0.93488 0.9012782,-1.70348 2.0485925,-1.72048 1.1473143,-0.017 2.0961809,0.724 2.1239897,1.65868" />
    </g>
  </g>
</svg>
