<?xml version="1.0" encoding="UTF-8" standalone="no"?>
<!-- Created with Inkscape (http://www.inkscape.org/) -->

<svg
   width="297mm"
   height="297mm"
   viewBox="0 0 99.000327 99.000495"
   version="1.1"
   id="svg1"
   xml:space="preserve"
   inkscape:version="1.3-beta (cedbd6c, 2023-05-28)"
   sodipodi:docname="little-bears-logo-square.svg"
   xmlns:inkscape="http://www.inkscape.org/namespaces/inkscape"
   xmlns:sodipodi="http://sodipodi.sourceforge.net/DTD/sodipodi-0.dtd"
   xmlns="http://www.w3.org/2000/svg"
   xmlns:svg="http://www.w3.org/2000/svg"><sodipodi:namedview
     id="namedview1"
     pagecolor="#ffffff"
     bordercolor="#000000"
     borderopacity="0.25"
     inkscape:showpageshadow="2"
     inkscape:pageopacity="0.0"
     inkscape:pagecheckerboard="0"
     inkscape:deskcolor="#d1d1d1"
     inkscape:document-units="mm"
     showguides="true"
     inkscape:zoom="0.32289892"
     inkscape:cx="-181.17125"
     inkscape:cy="764.94527"
     inkscape:window-width="2015"
     inkscape:window-height="1227"
     inkscape:window-x="0"
     inkscape:window-y="25"
     inkscape:window-maximized="0"
     inkscape:current-layer="svg1"><sodipodi:guide
       position="27.31343,27.105889"
       orientation="0,-1"
       id="guide76"
       inkscape:locked="false" /><sodipodi:guide
       position="49.983556,67.529849"
       orientation="1,0"
       id="guide77"
       inkscape:locked="false" /><sodipodi:guide
       position="2.1850724,148.10438"
       orientation="1,0"
       id="guide1"
       inkscape:locked="false" /><sodipodi:guide
       position="96.962639,148.92378"
       orientation="1,0"
       id="guide2"
       inkscape:locked="false" /><sodipodi:guide
       position="-12.837301,75.997023"
       orientation="0,-1"
       id="guide3"
       inkscape:locked="false" /><sodipodi:guide
       position="-4.9164156,-18.507604"
       orientation="0,-1"
       id="guide4"
       inkscape:locked="false" /></sodipodi:namedview><defs
     id="defs1" /><g
     inkscape:label="Little Bears text"
     inkscape:groupmode="layer"
     id="layer1"
     transform="translate(-16.256351,-4.6860189)"><path
       style="fill:#ff0000;stroke-width:0.552552"
       d="m 19.738329,30.796958 c 0,0 2.912981,2.733696 3.361133,3.361164 0.44814,0.627377 1.882224,2.419966 2.285564,2.912924 0.403335,0.492974 1.837413,2.106299 2.330368,2.509647 0.492967,0.403323 0.26889,0.806668 0.537781,1.120354 0.26889,0.313713 0.179361,0.179409 0.717049,0.179409 0.537766,0 0.537766,0.08961 0.896297,-0.313705 0.3585,-0.40333 0.672213,-1.030747 1.030742,-1.52373 0.358506,-0.492942 1.165174,-1.434067 1.568521,-1.792596 0.403338,-0.358513 1.075567,-0.98591 1.434081,-1.344428 0.358528,-0.358522 0.627395,-0.627402 0.80665,-1.165187 0.179354,-0.53779 0.492959,-1.254826 0.53782,-1.702972 0.04493,-0.44814 0,-0.672217 -0.53782,-0.851476 -0.53775,-0.179364 -0.80665,0.134705 -1.075539,0.627387 -0.26889,0.492983 0.179348,0.717055 -0.04492,1.210007 -0.224067,0.493014 -0.49296,1.254839 -0.985932,1.56854 -0.49296,0.313701 -1.478875,0.985928 -1.837433,1.344442 -0.358515,0.358516 -0.896276,0.806678 -1.209973,1.299626 -0.313715,0.492983 -0.26889,0.761855 -0.582604,0.761855 -0.313702,0 -1.299623,-1.344441 -1.658155,-1.882212 -0.358512,-0.537769 -1.299631,-1.658163 -1.613331,-2.06149 -0.313715,-0.403329 -1.613347,-1.927041 -1.83742,-2.285559 C 23.637122,32.410449 22.382304,30.573025 21.97896,30.348987 21.575632,30.124868 20.858595,29.5871 20.500091,29.5871 c -0.358536,0 -0.717049,0.403328 -0.761878,0.672244 -0.04494,0.268896 0,0.537742 0,0.537742 z"
       id="path1"
       inkscape:label="L" /><path
       id="path2"
       style="fill:#05a5e8;fill-opacity:1;stroke-width:0.552552"
       inkscape:label="i"
       d="m 33.116861,22.515602 c -0.186276,0 -0.590233,0.186885 -0.71441,0.34211 -0.124151,0.155325 -0.279511,0.528136 -0.279511,0.714438 0,0.186315 -4.04e-4,0.371999 0.216896,0.465132 0.217333,0.09308 0.279368,0.06234 0.527753,0.03127 0.248376,-0.03096 0.466203,-0.12408 0.466203,-0.12408 0,0 0.434346,-0.217595 0.496436,-0.434937 0.06201,-0.217341 -0.06218,-0.558965 -0.155404,-0.683158 -0.09304,-0.124221 -0.371686,-0.310785 -0.557973,-0.310785 z m 1.314499,2.074247 c -0.218273,0.0059 -0.445723,0.13058 -0.445723,0.13058 0,0 -0.12456,0.09359 -0.3108,0.186691 -0.186316,0.09315 -0.185692,0.402976 -0.185692,0.589281 0,0.186322 0.402849,0.651973 0.309732,0.807221 -0.09327,0.155292 -0.527744,0.187236 -0.527744,0.373406 0,0.186302 0.155317,0.837317 0.403612,1.085685 0.248377,0.248416 0.652511,0.186653 0.869851,0.31082 0.217341,0.124179 0.434586,1.086344 0.527728,1.303687 0.09307,0.217335 0.621211,1.118166 0.838546,1.397584 0.217342,0.279427 0.652022,1.552477 0.807267,1.89403 0.155276,0.341523 0.745304,1.986714 0.962629,2.110951 0.163009,0.093 0.885552,-0.337948 1.183885,-0.454372 -0.09591,-0.168854 -0.197086,-0.614477 -0.28382,-0.787836 -0.124221,-0.248339 -0.869504,-1.986158 -0.962639,-2.172446 -0.09307,-0.186313 -0.651768,-1.646464 -0.775957,-1.863805 -0.124363,-0.217331 -0.807768,-2.017455 -0.86984,-2.203742 -0.062,-0.186338 -0.651287,-1.800516 -0.713368,-1.98682 -0.062,-0.186316 -0.373256,-0.558958 -0.621642,-0.683124 -0.06201,-0.03115 -0.133348,-0.04082 -0.206213,-0.03782 z m 4.433397,9.735567 c 0.0414,0.07317 0.08203,0.09442 0.119827,0.01776 0.03089,-0.06183 -0.02112,-0.05786 -0.119827,-0.01776 z" /><path
       style="fill:#fb911c;fill-opacity:1;stroke-width:0.552552"
       d="m 38.705007,22.422984 c 0.03103,-0.03106 0.465703,-0.09312 0.745149,0.124193 0.279406,0.217334 0.341508,0.714117 0.4036,0.931448 0.06197,0.217322 0,0.869322 0.186354,0.993543 0.186313,0.124151 0.900366,-0.186313 1.210848,-0.248401 0.310479,-0.06203 0.620974,-0.217326 0.869352,-0.06203 0.248372,0.155326 0.310459,0.49679 0.248372,0.714121 -0.06195,0.217317 -0.403625,0.403591 -0.589905,0.49673 -0.186315,0.09322 -1.272956,0.43468 -1.272956,0.43468 0,0 0.217321,1.148751 0.279424,1.366083 0.06204,0.217341 0.434668,1.61451 0.589877,1.831819 0.155309,0.217339 0.68309,0.900412 0.869347,1.02459 0.186307,0.124165 0.745176,0.52782 0.931464,0.589897 0.186288,0.06201 0.589928,-0.03091 0.589928,-0.03091 0,0 0.248361,-0.3726 0.310441,-0.527808 0.06207,-0.155271 0.09314,-0.993549 0.09314,-1.210861 0,-0.217325 0.03115,-0.652007 0.217347,-0.776211 0.186305,-0.124264 0.248401,-0.279418 0.496775,-0.279418 0.248368,0 0.49674,0.31047 0.589893,0.496754 0.09312,0.186248 0.186293,0.962485 0.186293,1.179829 0,0.217341 -0.217343,1.210849 -0.3415,1.428185 -0.124179,0.217317 -0.652017,0.776191 -0.807251,0.90038 -0.15538,0.124335 -1.148748,0.279433 -1.459231,0.186301 -0.310488,-0.0931 -2.266488,-1.49028 -2.421747,-1.707607 -0.155374,-0.217307 -0.931415,-2.918486 -0.962472,-3.073718 -0.03114,-0.155334 -0.341528,-0.838323 -0.341528,-0.838323 0,0 -1.490281,0.620984 -1.614484,0.55891 -0.124277,-0.06203 -0.093,-0.745171 0.03106,-0.962509 0.124235,-0.217316 1.397144,-0.838264 1.397144,-0.838264 0,0 -0.620945,-0.807245 -0.745122,-1.086711 -0.124278,-0.27941 -0.06203,-1.0556 0,-1.210844 0.062,-0.155243 0.310444,-0.4036 0.310444,-0.4036 z"
       id="path4"
       inkscape:label="t" /><path
       style="fill:#8cc533;fill-opacity:1;stroke-width:0.552552"
       d="m 46.180703,18.796404 c -0.02174,0 0.499444,0.06511 0.651457,0.195368 0.152092,0.130311 0.217136,0.195407 0.217136,0.412578 0,0.217157 0.02172,1.281212 0.02172,1.454931 0,0.173564 0,0.390862 0,0.390862 0,0 1.259486,-0.173693 1.411487,-0.173693 0.152117,0 0.586358,-0.08679 0.738352,0.0435 0.152064,0.130283 0.30401,0.499454 0.195413,0.694886 -0.108609,0.19537 -0.542858,0.369188 -0.738325,0.434343 -0.195422,0.06519 -0.67317,0.152034 -0.825169,0.152034 -0.15208,0 -0.564622,-0.02169 -0.564622,-0.02169 0,0 0.08689,0.933749 0.108609,1.129187 0.02169,0.195424 0.08687,1.368047 0.152095,1.563504 0.06518,0.195414 0.260589,1.194343 0.39088,1.346349 0.130227,0.15211 0.694895,0.738299 0.803501,0.846906 0.108609,0.108609 0.456025,0.521151 0.694854,0.521151 0.238869,0 0.673181,-0.369159 0.781749,-0.564587 0.108608,-0.195428 0.347449,-0.890332 0.347449,-1.085781 0,-0.195369 -0.108609,-0.390852 0.02179,-0.521155 0.130311,-0.130282 0.43432,-0.477728 0.651451,-0.456007 0.21714,0.02179 0.499471,0.347436 0.564594,0.54287 0.06511,0.195405 0.06511,0.781748 0.04353,0.977202 -0.02169,0.19537 -0.390883,1.302907 -0.499486,1.476643 -0.108609,0.17367 -0.738309,0.825168 -0.955455,0.912025 -0.217162,0.08685 -1.346369,0.04346 -1.563502,-0.08692 -0.217201,-0.130282 -1.042351,-0.890307 -1.17264,-1.042333 -0.130325,-0.152099 -0.629739,-0.803494 -0.781755,-1.042315 -0.1521,-0.238886 -0.30402,-1.368086 -0.347424,-1.585236 -0.04346,-0.217147 -0.06521,-1.085815 -0.130226,-1.237783 -0.06516,-0.152103 -0.260619,-1.237768 -0.260619,-1.237768 0,0 -1.346346,0.36916 -1.541773,0.36916 -0.19541,0 -0.282303,-0.195358 -0.282303,-0.36916 0,-0.173549 0.06518,-0.456016 0.217169,-0.629731 0.152035,-0.173584 0.456009,-0.325742 0.629736,-0.412593 0.173591,-0.08692 0.890332,-0.282309 0.890332,-0.282309 0,0 -0.06516,-0.412583 -0.173705,-0.586313 -0.108609,-0.17366 -0.304018,-0.456038 -0.325735,-0.608043 -0.02169,-0.152091 0.08689,-0.347433 0.13024,-0.542888 0.0434,-0.195403 0.02167,-0.390838 0.06513,-0.564593 0.04349,-0.173551 0.434322,-0.412574 0.434322,-0.412574 z"
       id="path5"
       inkscape:label="t2" /><path
       style="fill:#f51922;fill-opacity:1;stroke-width:0.552552"
       d="m 51.761538,16.994039 c 0,0 0.282313,-0.173657 0.477741,-0.195407 0.195411,-0.02169 0.52119,0 0.716605,0.06516 0.195407,0.0652 0.282297,0.152117 0.369153,0.325716 0.08689,0.173622 0.369167,0.673182 0.434319,0.825195 0.06515,0.152097 0.477712,1.194347 0.586321,1.433219 0.108609,0.238866 0.412579,1.454917 0.412579,1.672059 0,0.217154 0.06513,1.454946 0.08675,1.606965 0.02172,0.152075 0.108609,1.433194 0.152098,1.650352 0.0434,0.21713 0.152035,1.324649 0.17365,1.563489 0.02172,0.238875 0.108608,1.324642 0.108608,1.520131 0,0.195348 0.108609,0.955438 -0.02169,1.064007 -0.130255,0.108609 -0.456039,0.108609 -0.629772,0.108609 -0.173574,0 -0.608024,-0.06516 -0.738285,-0.217152 -0.130283,-0.152094 -0.06515,-0.998875 -0.06515,-1.172648 0,-0.173622 -0.0652,-1.563471 -0.0652,-1.737204 0,-0.17364 -0.173679,-1.324652 -0.173679,-1.498396 0,-0.173592 -0.130282,-0.998901 -0.152104,-1.194308 -0.02169,-0.195414 -0.217124,-1.281197 -0.282278,-1.585251 -0.06509,-0.304003 -0.390833,-1.541764 -0.390833,-1.541764"
       id="path6"
       inkscape:label="l" /><path
       id="path7"
       style="fill:#e30589;fill-opacity:1;stroke-width:0.552552"
       d="m 60.809433,17.824258 c -0.236678,0.0023 -0.56231,0.02734 -0.725203,0.04123 -0.217186,0.01637 -1.213224,0.398237 -1.23137,0.398237 0,0 -0.470605,0.25269 -0.633505,0.343186 -0.16292,0.0905 -0.56077,0.471082 -0.68746,0.670182 -0.12675,0.19902 -0.470173,1.230534 -0.524496,1.483911 -0.05431,0.253399 -0.21801,0.959066 -0.21801,1.248653 v 1.339294 c 0,0.217203 0.109004,0.977248 0.199555,1.176358 0.09049,0.199002 0.488216,1.013958 0.596816,1.213057 0.108623,0.199006 0.706708,0.887427 0.851487,1.06838 0.144779,0.18109 1.012527,0.813571 1.265918,0.958398 0.253385,0.144765 0.995761,0.29026 1.285378,0.29026 0.289554,0 0.832367,-0.145305 1.013338,-0.199575 0.181078,-0.05431 1.050644,-0.669737 1.24973,-0.796451 0.199029,-0.12675 0.614705,-0.597131 0.741415,-0.778097 0.12675,-0.181042 0.506881,-0.760301 0.561184,-0.959426 0.05431,-0.199017 0.144898,-0.687514 0.09061,-0.850417 -0.05431,-0.162916 -0.271778,-0.307242 -0.416577,-0.361523 -0.144766,-0.05431 -0.307748,0.0903 -0.398229,0.144573 -0.09049,0.05431 -0.650846,0.850738 -0.813734,1.031692 -0.162908,0.181072 -1.0137,0.760425 -1.194673,0.887116 -0.181096,0.126751 -0.959998,0.487994 -1.159052,0.506177 -0.199032,0.01642 -0.596661,-0.01571 -0.741441,-0.108171 -0.14478,-0.0905 -0.66976,-0.525422 -0.796462,-0.670193 -0.126765,-0.144767 -0.579446,-0.941165 -0.651865,-1.104037 -0.07244,-0.162922 -0.162975,-0.688051 -0.162975,-0.887121 0,-0.199009 0.07237,-1.267006 0.07237,-1.267006 0,0 0.307958,0.03692 0.416581,0.05481 0.108623,0.01638 0.94114,0.03551 1.104015,0.03551 0.162928,0 0.688033,-0.09003 0.887129,-0.126313 0.199033,-0.03618 1.121361,-0.416277 1.284253,-0.470553 0.162951,-0.05431 1.140557,-0.471025 1.285352,-0.507224 0.144766,-0.03618 0.198985,-0.288975 0.235266,-0.506162 0.03618,-0.217177 -0.307724,-0.850974 -0.398222,-1.050079 -0.0905,-0.19899 -0.651495,-1.104438 -0.705818,-1.213023 -0.05431,-0.108623 -0.59742,-0.669259 -0.72415,-0.759741 -0.126751,-0.0905 -0.560654,-0.253891 -0.759753,-0.27198 -0.04983,-0.0031 -0.11864,-0.0037 -0.197441,-0.003 z m -0.267622,1.518459 c 0.03059,-7.5e-5 0.05366,0.0013 0.06693,0.0044 0.108623,0.03618 0.597243,0.235235 0.70579,0.470522 0.108623,0.235293 0.379892,0.759769 0.379892,0.759769 l -0.03556,0.108892 c 0,0 -0.634063,0.343664 -0.833151,0.379863 -0.199007,0.03618 -0.923287,0.32616 -1.122362,0.344267 -0.199031,0.01642 -0.742087,0.07237 -0.868778,0.07237 -0.12675,0 -0.470553,-0.09061 -0.470553,-0.09061 0,0 0.271563,-0.922811 0.398264,-1.085689 0.12675,-0.162924 0.615694,-0.760492 0.814779,-0.814786 0.174208,-0.04762 0.750783,-0.150426 0.964837,-0.151235 z"
       inkscape:label="e" /><path
       id="path8"
       style="display:inline;fill:#05abf8;fill-opacity:1;stroke-width:0.552552"
       d="m 75.145719,13.425392 -0.173667,0.173676 c 0,0 -0.174021,0.231154 -0.232035,0.433831 -0.05789,0.202542 -0.115489,1.129083 -0.115489,1.331758 0,0.202545 -0.05746,0.955168 -0.115306,1.302602 -0.0579,0.347421 -0.232229,1.506085 -0.261148,1.76667 -0.02894,0.260565 -0.288717,1.390075 -0.375594,1.737506 -0.08689,0.347434 -0.319446,0.983765 -0.319446,1.244334 0,0.26059 -0.346602,1.7083 -0.375549,2.026782 -0.02905,0.318476 -0.08695,1.736872 -0.173714,1.968492 -0.08685,0.231618 -0.37627,2.287561 -0.318374,2.403393 0.05784,0.115758 0.433703,0.289602 0.578455,0.347498 0.144766,0.05791 0.579586,0.636576 0.753308,0.781358 0.173671,0.144727 1.0994,0.723815 1.388917,0.839624 0.289525,0.115631 1.303209,0.116437 1.563773,0.116437 0.260622,0 1.390304,-0.376279 1.592941,-0.492096 0.202644,-0.115758 1.303014,-0.782157 1.534655,-1.07161 0.231608,-0.289577 0.781008,-1.013122 0.896825,-1.302675 0.115716,-0.289467 -0.02791,-0.810532 -0.05702,-0.984225 -0.02888,-0.173664 -0.232424,-1.244955 -0.290325,-1.505498 -0.05799,-0.260565 -0.665915,-1.505901 -0.839632,-1.73752 -0.173594,-0.231631 -0.521276,-0.665872 -0.521276,-0.665872 0,0 0.290355,-0.289985 0.464074,-0.405817 0.173667,-0.115786 0.375928,-0.92565 0.433851,-1.215185 0.05793,-0.289517 0,-1.824262 0,-2.055876 0,-0.231601 -0.289605,-1.592978 -0.347523,-1.766661 -0.05794,-0.173626 -0.753128,-1.418161 -0.897901,-1.591865 -0.144746,-0.173544 -0.839682,-0.723801 -1.013387,-0.839621 -0.173598,-0.115857 -1.330874,-0.462974 -1.533549,-0.462974 -0.202572,0 -0.347496,0.115335 -0.347496,0.115335 0,0 0.02788,-0.289788 -0.116578,-0.376666 -0.14474,-0.08676 -0.78131,-0.115348 -0.78131,-0.115348 z m 0.897906,1.650113 c 0,0 0.607481,0.05821 0.925989,0.232039 0.318434,0.173689 1.129753,0.723142 1.274508,0.896815 0.144753,0.173653 0.607969,0.781764 0.665888,1.013389 0.05786,0.231608 0.144581,0.69509 0.144581,1.042518 0,0.347437 0.11508,1.303021 0.05708,1.534639 -0.05791,0.231623 -0.144088,1.013419 -0.404677,1.187132 -0.26057,0.173677 -0.694727,0.288856 -0.984265,0.230957 -0.289521,-0.05793 -1.100834,-0.231522 -1.274546,-0.318365 -0.173595,-0.08681 -0.694878,-0.346616 -0.839656,-0.375542 -0.144748,-0.02892 -0.433983,0.02858 -0.462957,-0.20288 -0.02888,-0.231618 0.115758,-1.013592 0.173703,-1.216261 0.05787,-0.202637 0.289403,-1.187028 0.318351,-1.505529 0.02888,-0.318461 0.260991,-1.129017 0.23202,-1.33172 l -0.02919,-0.202822 c 0,0 0.144915,-0.72366 0.202819,-0.984226 z m -1.07166,6.919906 c 0,0 0.579412,0.116167 0.724143,0.202821 0.14476,0.08692 0.723294,0.462267 0.925933,0.520199 0.202695,0.05784 0.752834,0.20286 1.013385,0.20286 0.260622,0 0.811251,-0.173543 0.927064,0 0.115843,0.173666 0.434411,0.86936 0.521265,1.129926 0.08681,0.260597 0.491249,0.983977 0.520177,1.273492 0.02888,0.289524 0.174059,1.041857 0.05829,1.273474 -0.115814,0.231629 -0.637161,1.360734 -0.868775,1.505501 -0.231605,0.144757 -1.186831,0.724138 -1.476372,0.724138 -0.289511,0 -1.331951,-0.08692 -1.534629,-0.173574 -0.202624,-0.08682 -0.92651,-0.405118 -1.013395,-0.636737 -0.08679,-0.231625 -0.289406,-0.52096 -0.318359,-0.810503 -0.02898,-0.289489 -0.02919,-1.216663 -0.02919,-1.448288 0,-0.231615 0.144605,-1.360767 0.144605,-1.67925 0,-0.318496 0.08756,-0.839673 0.116535,-1.013393 0.02894,-0.173594 0.08664,-0.60744 0.144649,-0.752198 0.05787,-0.144748 0.144625,-0.318364 0.144625,-0.318364 z"
       inkscape:label="B" /><path
       id="path10"
       style="display:inline;fill:#e82021;fill-opacity:1;stroke-width:0.552552"
       d="m 86.732129,19.435507 c -0.379732,0.0011 -0.886167,0.02114 -1.105102,0.04123 0,0 -0.695235,0.173745 -0.897912,0.347499 -0.202661,0.173596 -1.01342,0.95462 -1.187136,1.215202 -0.173669,0.260568 -0.868764,1.708369 -0.868764,1.708369 0,0 -0.34697,0.81129 -0.433834,1.100809 -0.08687,0.289537 -0.116196,1.128574 -0.08743,1.418086 0.02889,0.289502 0.289791,1.39042 0.376605,1.622055 0.08692,0.231632 0.636613,1.302831 0.781406,1.505505 0.144747,0.202624 1.216004,0.95457 1.679248,1.041453 0.463237,0.08685 1.506257,-0.143889 1.795806,-0.201805 0.289528,-0.05787 1.534339,-0.753483 1.823888,-0.956144 0.289525,-0.202603 0.607575,-0.694858 0.607575,-0.839643 0,-0.144728 -0.202522,-0.607937 -0.318369,-0.66586 -0.115786,-0.05797 -0.492323,0.145275 -0.695021,0.26118 -0.202649,0.115659 -1.128933,0.550037 -1.476336,0.66587 -0.347455,0.115843 -1.187023,0.259888 -1.505534,0.23095 -0.318447,-0.02896 -0.897933,-0.202687 -1.071635,-0.347499 -0.17368,-0.144767 -0.664984,-1.128211 -0.693949,-1.359829 -0.02887,-0.231623 -5.28e-4,-1.390081 0.08624,-1.737506 0.08685,-0.347474 0.521266,-1.18715 0.521266,-1.18715 0,0 0.839478,0.34786 0.984236,0.405769 0.14474,0.05784 1.129648,0.375754 1.419159,0.404723 0.289511,0.02888 1.620706,0.173487 1.910255,0.144569 0.289482,-0.02906 0.810703,8.67e-4 1.013333,-0.201695 0.202632,-0.202524 0.260295,-0.26144 0.289254,-0.637795 0.02885,-0.37639 0.02976,-1.186848 -0.02776,-1.476363 -0.05793,-0.289538 -0.348065,-1.012913 -0.434933,-1.273494 -0.08692,-0.260565 -0.578888,-0.724003 -0.810507,-0.868778 -0.23162,-0.144745 -1.012882,-0.318539 -1.273441,-0.347482 -0.08145,-0.0061 -0.227774,-0.0083 -0.400394,-0.0081 z m -0.03782,1.501202 c 0.275126,0.0021 0.571589,0.03005 0.698246,0.102491 0.202654,0.115758 0.550591,0.406213 0.579555,0.637847 0.02885,0.231584 0.202182,0.8105 0.115377,0.984211 -0.08686,0.173576 -0.665545,0.08636 -0.955039,0.08636 -0.289527,0 -1.100139,-0.05762 -1.331767,-0.115349 -0.231621,-0.05789 -1.04252,-0.376658 -1.04252,-0.376658 0,0 0.26067,-0.723996 0.521297,-0.868761 0.260523,-0.144758 0.694668,-0.404886 0.98421,-0.433832 0.108609,-0.0073 0.265544,-0.01631 0.430604,-0.01429 z"
       inkscape:label="e2" /><path
       id="path11"
       style="display:inline;fill:#8cc345;fill-opacity:1;stroke-width:0.552552"
       d="m 94.246701,21.951163 c -0.26759,0 -0.922246,4.06e-4 -1.219524,0.08946 -0.297289,0.0891 -0.534819,0.505559 -0.505079,0.535271 0,0 0.02943,0.267368 0.118626,0.445729 0.08913,0.178447 0.475667,0.267562 0.654013,0.327011 0.178364,0.0595 0.981106,-0.08951 1.24864,-0.08951 0.267559,0 0.921837,0.208209 1.129912,0.267659 0.208163,0.05947 0.83181,0.50536 1.010164,0.654008 0.178436,0.148537 0.446227,0.921764 0.475928,1.189281 0.02967,0.26754 -0.08887,0.802616 -0.11874,0.981019 -0.02966,0.178417 -0.445705,0.832074 -0.445705,0.832074 0,0 -0.594839,-0.415905 -0.802926,-0.505076 -0.208113,-0.08911 -0.683963,-0.326906 -0.862302,-0.386356 -0.178351,-0.05957 -1.12955,-0.505482 -1.367358,-0.594649 -0.23783,-0.08908 -1.278469,-0.148807 -1.516324,-0.148807 -0.237788,0 -0.891596,0.327776 -1.099685,0.506134 -0.20813,0.178473 -0.653906,0.802557 -0.713369,1.040355 -0.05938,0.237833 -0.267624,0.980591 -0.267624,1.218452 0,0.237806 0.208192,1.279067 0.267624,1.487138 0.05947,0.208113 0.773133,1.129053 0.8623,1.337154 0.08911,0.208106 0.891004,0.832652 1.12885,1.12991 0.237831,0.29729 1.189579,0.980917 1.338228,1.040382 0.148585,0.05947 0.208606,-0.178112 0.357219,-0.178112 0.148558,0 0.534396,0.505083 0.742498,0.505083 0.208142,0 0.14901,-0.296881 0.357222,-0.564433 0.208156,-0.267555 0.654173,-0.743436 0.86229,-1.129917 0.20811,-0.386478 0.861485,-1.308104 1.010169,-1.575667 0.148536,-0.267556 0.595033,-1.338215 0.684192,-1.665212 0.08914,-0.32703 0.475726,-1.307507 0.594634,-1.6048 0.118894,-0.29729 0.237936,-1.040459 0.267682,-1.308004 0.0296,-0.267549 -0.03,-0.832758 -0.08945,-1.070568 -0.05926,-0.237849 -0.53549,-0.772744 -0.743593,-1.099722 -0.208111,-0.327029 -0.68324,-0.683947 -0.950805,-0.862318 -0.267559,-0.178474 -0.86227,-0.505476 -1.189287,-0.594651 -0.326995,-0.08915 -0.950887,-0.208331 -1.218412,-0.208331 z m -1.889729,4.903932 c 0.01371,-7.75e-4 0.03156,-7.61e-4 0.04653,0.0011 0.237844,0.02966 0.594743,4.18e-4 0.862311,0.08946 0.267541,0.08914 0.683226,0.356529 0.950792,0.445719 0.267524,0.08901 0.683908,0.326807 0.862284,0.445712 0.178382,0.118895 0.564717,0.416471 0.713358,0.475934 0.148545,0.05938 0.296757,0.386343 0.296757,0.386343 0,0 -0.445016,0.743783 -0.534185,0.95187 -0.08908,0.208139 -0.654877,1.040008 -0.773805,1.277775 -0.118881,0.237823 -0.534973,1.099733 -0.713374,1.099733 -0.178385,0 -0.861974,-0.653107 -1.040348,-0.86122 -0.178429,-0.208109 -1.099608,-0.892691 -1.159051,-1.100795 -0.05948,-0.208128 -0.475353,-0.594342 -0.505092,-0.772711 -0.02963,-0.17848 -0.118838,-0.920755 -0.05931,-1.128846 0.05944,-0.208129 0.207552,-0.713654 0.356129,-0.862307 0.139354,-0.139353 0.461466,-0.435894 0.697133,-0.447864 z"
       inkscape:label="a" /><path
       style="fill:#ef953b;fill-opacity:1;stroke-width:0.552552"
       d="m 102.21336,26.916148 c 0,0 0.35672,0.02966 0.50538,0.208118 0.14863,0.17854 0,0.564861 -0.0596,0.713484 -0.0595,0.148527 -0.38647,0.624294 -0.35678,0.743209 0.0297,0.118895 0.74327,0.237822 1.01076,0.386452 0.26762,0.148555 0.62436,0.327024 0.74324,0.564837 0.11906,0.237817 0.35675,0.832377 0.35675,1.12965 0,0.297296 -0.14861,1.129698 -0.20815,1.308047 -0.0593,0.178376 -0.50537,0.862107 -0.68373,1.040477 -0.17844,0.178471 -0.26758,0.386485 -0.47565,0.297316 -0.20812,-0.08912 -0.59459,-0.386491 -0.77294,-0.416214 -0.17849,-0.02966 -0.35672,-0.356757 -0.38645,-0.564841 -0.0296,-0.208113 0.26754,-0.59457 0.38645,-0.802653 0.11889,-0.208126 0.47564,-0.445924 0.47564,-0.713482 0,-0.267552 -0.20812,-0.624294 -0.35671,-0.713463 -0.14867,-0.08911 -0.41622,-0.26754 -0.59459,-0.237826 -0.17842,0.02967 -1.04051,1.099935 -1.21885,1.248576 -0.17833,0.148593 -0.772886,1.010746 -0.981003,1.189163 -0.208139,0.178415 -1.18914,1.516107 -1.426956,1.545799 -0.237808,0.0297 -1.129664,-0.624283 -1.159405,-0.832375 -0.02964,-0.208069 0.624294,-1.159394 0.802691,-1.337766 0.178342,-0.178454 0.981025,-1.070202 1.218822,-1.218829 0.237833,-0.14864 0.86211,-1.010762 1.070221,-1.248595 0.20813,-0.237821 0.71349,-1.0702 0.8621,-1.248564 0.14856,-0.178273 0.47565,-0.564835 0.65402,-0.71349 0.1784,-0.148611 0.59457,-0.327014 0.59457,-0.327014 z"
       id="path12"
       inkscape:label="r" /><path
       style="fill:#ea0283;fill-opacity:1;stroke-width:0.552552"
       d="m 107.14817,30.988922 c 0,0 0.80277,0.326985 1.01077,0.445898 0.20816,0.118895 0.89189,0.535104 1.12967,0.743214 0.23784,0.208105 0.56482,0.713466 0.68389,0.921567 0.1187,0.208137 0.20798,0.475642 0.23769,0.743179 0.0298,0.26757 0.17844,0.356762 -0.0593,0.475681 -0.23781,0.118894 -0.4162,0.178427 -0.62434,0.05947 -0.20801,-0.118895 -0.68372,-0.713495 -0.89182,-0.891856 -0.20812,-0.178481 -0.59451,-0.475654 -0.8324,-0.624303 -0.23779,-0.14854 -0.44588,-0.386439 -0.71346,-0.44589 -0.26752,-0.0595 -0.41613,0.148478 -0.56477,0.44589 -0.14864,0.297289 -0.47563,0.594577 -0.47563,0.921579 0,0.32702 0,1.516145 0,1.75398 0,0.237802 0.14846,1.397189 0.11877,1.635031 -0.0301,0.237826 -0.14853,0.802653 -0.29733,1.12964 -0.14856,0.327009 -0.38644,0.862136 -0.71342,1.129715 -0.32705,0.267522 -0.95135,0.832363 -1.27832,0.921532 -0.32702,0.08915 -1.12968,-0.08907 -1.42696,-0.20811 -0.29729,-0.118951 -0.981,-0.56483 -1.15938,-0.802666 -0.17844,-0.237792 -0.71349,-1.159383 -0.74319,-1.426931 -0.0296,-0.267564 0.23782,-1.129668 0.3567,-1.337764 0.11896,-0.208143 0.59459,-0.594544 0.77293,-0.683745 0.17843,-0.08911 0.50537,-0.267544 0.71349,-0.118951 0.20814,0.148574 0.11895,0.356735 0,0.564836 -0.11895,0.208121 -0.38646,0.56483 -0.41618,0.832389 -0.0297,0.267562 0,0.802645 0.14853,0.981028 0.1486,0.178455 0.71346,0.713471 0.92158,0.772902 0.2081,0.05944 0.29726,0.26757 0.62426,0.178557 0.32704,-0.08903 0.56485,-0.416204 0.77296,-0.654057 0.2081,-0.2378 0.44591,-0.713451 0.47562,-0.921543 0.0298,-0.208123 -0.0892,-0.951299 -0.0892,-1.218859 0,-0.267533 -0.0593,-0.921582 -0.0593,-1.218828 0,-0.297309 0.23786,-1.308054 0.29727,-1.545881 0.0594,-0.237813 0.2973,-0.862101 0.41622,-1.099917 0.11906,-0.237848 0.26752,-0.743221 0.56486,-1.010754 0.29732,-0.267559 0.44589,-0.386484 0.68375,-0.386484 0.23786,0 0.41616,-0.05945 0.41616,-0.05945 z"
       id="path13"
       inkscape:label="s" /></g><g
     inkscape:groupmode="layer"
     id="layer2"
     inkscape:label="Big Bear"
     transform="translate(-16.256351,-4.6860189)"><g
       id="g42"
       inkscape:label="big bear"
       transform="matrix(2.0884029,0,0,2.0884027,-14.231396,3.6391012)"><path
         id="path31"
         style="display:inline;fill:#dcb06f;fill-opacity:1;stroke:#604e30;stroke-width:0.165;stroke-dasharray:none;stroke-opacity:1"
         inkscape:label="body"
         d="m 45.571379,20.736202 c -0.310009,0 -1.171375,0.44789 -1.446941,0.620117 -0.275561,0.172227 -0.861141,0.723166 -1.102258,0.964282 l -0.585494,0.585494 c 0,0 -0.06891,-0.06858 -0.103353,-0.240812 -0.03445,-0.172228 -0.20656,-0.275629 -0.378788,-0.413411 -0.172228,-0.137782 -0.654224,-0.378789 -0.654224,-0.378789 h -0.01602 c -0.320751,0.303418 -0.688315,0.624759 -0.845427,0.722954 -0.275561,0.172227 -1.618912,0.516764 -1.997811,0.516764 -0.378899,0 -1.791157,-0.344376 -2.101163,-0.585494 -0.163864,-0.127449 -0.432681,-0.37944 -0.681096,-0.629936 0.04424,0.05022 0.130225,0.147795 0.130225,0.147795 0,0 -0.344539,0.241006 -0.516764,0.378788 -0.172225,0.137782 -0.585494,0.551388 -0.585494,0.551388 0,0 -0.585885,-0.79241 -0.861446,-1.033529 -0.275564,-0.241118 -0.895428,-0.585688 -1.170988,-0.72347 -0.275564,-0.137782 -0.757626,-0.378788 -1.067636,-0.378788 -0.310007,0 -1.033563,0.06894 -1.240234,0.310058 -0.206674,0.241119 -0.137782,1.928792 0,2.273247 0.137782,0.344452 1.10247,1.308819 1.343587,1.481046 0.241118,0.172228 1.343071,0.7922 1.343071,0.7922 0,0 -0.309876,1.102308 -0.275436,1.412317 0.03445,0.310007 0.585691,1.722424 0.72347,2.032434 0.137785,0.310009 0.998906,1.205611 0.998906,1.205611 0,0 -0.516781,0.757614 -0.620117,0.964282 -0.103336,0.206674 -0.826838,1.171197 -0.930176,1.412317 -0.103336,0.241117 -0.72331,1.377903 -0.7922,1.619023 -0.06889,0.241117 0.0343,1.171039 0.172083,1.481046 0.137782,0.310009 1.068039,0.75792 1.44694,0.72347 0.378897,-0.03445 1.1712,-0.516621 1.412317,-0.688846 0.241118,-0.172225 0.861303,-0.964317 1.033528,-1.170988 0.172228,-0.206672 0.654418,-1.240269 0.7922,-1.44694 0.137782,-0.206672 0.654224,-1.102259 0.654224,-1.102259 0,0 0.689058,0.240986 0.930176,0.275436 0.241114,0.03444 0.998905,-0.240813 0.998905,-0.240813 0,0 0.654418,1.06785 0.7922,1.308964 0.137782,0.24112 0.75795,1.136576 0.930175,1.377694 0.172225,0.24112 0.757786,0.99876 0.998906,1.170988 0.241117,0.172228 1.308659,0.448035 1.549776,0.448035 0.24112,0 0.827017,-0.31027 0.964799,-0.551388 0.137782,-0.241117 0.275435,-1.240089 0.275435,-1.412317 0,-0.172222 -0.241168,-1.239749 -0.310058,-1.446423 -0.06889,-0.206671 -0.792394,-1.309175 -0.930176,-1.550293 -0.137782,-0.24112 -1.136365,-1.274341 -1.136365,-1.274341 0,0 0.619637,-0.688718 0.826306,-0.964282 0.206674,-0.275563 0.516782,-0.964834 0.620118,-1.171505 0.103338,-0.206674 0.275435,-1.033401 0.275435,-1.308964 0,-0.275561 -0.137459,-1.274341 -0.137459,-1.274341 0,0 0.447889,-0.206722 0.620117,-0.310058 0.172228,-0.103337 0.860784,-0.516442 1.033012,-0.654224 0.172227,-0.137782 0.689038,-0.757786 0.826823,-0.998905 0.137782,-0.241118 0.413238,-1.274552 0.378788,-1.51567 -0.03445,-0.241119 -0.275291,-0.792054 -0.447518,-0.964282 -0.172228,-0.172227 -0.826874,-0.344682 -1.13688,-0.344682 z" /><path
         style="display:inline;fill:#dcb06f;fill-opacity:1;stroke:#604e30;stroke-width:0.165;stroke-dasharray:none;stroke-opacity:1"
         d="m 38.510053,16.223824 c 0,0 0.482238,0.103337 0.688912,0.103337 0.206671,0 0.654463,0.03444 0.654463,0.03444 0,0 0.585573,-0.792246 0.826693,-0.930028 0.241117,-0.137782 1.412264,-0.723355 1.722273,-0.723355 0.31001,0 1.067811,0.206673 1.308928,0.413346 0.241121,0.206673 0.757802,1.205592 0.792248,1.550047 0.03445,0.344455 -0.172228,1.205592 -0.31001,1.412265 -0.137782,0.206673 -0.792247,0.7578 -0.998919,0.826692 -0.206673,0.06889 -0.723354,0.241118 -0.723354,0.241118 0,0 -0.103339,0.964473 -0.206674,1.205592 -0.103336,0.241118 -0.275564,0.723355 -0.447792,0.964473 -0.172228,0.241119 -1.102254,1.102256 -1.37782,1.274484 -0.275564,0.172227 -1.618938,0.516682 -1.997837,0.516682 -0.378902,0 -1.791166,-0.344455 -2.101175,-0.585573 -0.31001,-0.241119 -0.998919,-0.930029 -1.205593,-1.205593 -0.206671,-0.275563 -0.654463,-1.171146 -0.688909,-1.44671 -0.03445,-0.275564 0,-0.551128 0,-0.551128 0,0 -0.757801,-0.447791 -0.998918,-0.620018 -0.24112,-0.172228 -0.895583,-1.171147 -0.930029,-1.446711 -0.03445,-0.275564 0.172228,-1.412265 0.344456,-1.618938 0.172227,-0.206673 1.033364,-0.792246 1.308928,-0.861137 0.275563,-0.06889 1.343374,0.06889 1.653384,0.206673 0.310009,0.137782 0.82669,0.482237 1.033364,0.68891 0.206672,0.206673 0.447792,0.7578 0.447792,0.7578 0,0 0.413345,-0.06889 0.688908,-0.137782 0.275564,-0.06889 0.516681,-0.06889 0.516681,-0.06889 z"
         id="path35"
         inkscape:label="head" /><path
         style="fill:#a57f58;fill-opacity:1;stroke:#604e30;stroke-width:0.165;stroke-dasharray:none;stroke-opacity:1"
         d="m 30.863156,21.59732 c 0,0 0.482237,-0.275564 0.757801,-0.275564 0.275564,0 0.620019,0.06889 0.792247,0.206673 0.172228,0.137782 0.378899,0.172228 0.378899,0.344455 0,0.172228 -0.551127,0.654465 -0.688908,0.861138 -0.137782,0.206672 -0.482238,0.585573 -0.688912,0.654464 -0.206671,0.06889 -0.241117,0.137782 -0.413345,-0.03445 -0.172228,-0.172227 -0.378899,-0.723355 -0.378899,-0.964473 0,-0.241119 0.241117,-0.792247 0.241117,-0.792247 z"
         id="path32"
         inkscape:label="left paw" /><path
         style="fill:#a57f58;fill-opacity:1;stroke:#604e30;stroke-width:0.165;stroke-dasharray:none;stroke-opacity:1"
         d="m 33.65324,16.223824 c 0,0 0.723355,-0.585573 0.930029,-0.585573 0.206674,0 0.861137,0.06889 0.998919,0.137782 0.137781,0.06889 0.447791,0.31001 0.447791,0.31001 0,0 -0.723355,0.413345 -0.895583,0.620018 -0.172228,0.206673 -0.551127,0.654464 -0.585573,0.964474 -0.03445,0.310009 -0.137782,0.861137 -0.137782,0.861137 0,0 -0.447791,-0.585573 -0.551127,-0.826692 -0.103336,-0.241118 -0.275563,-0.688909 -0.275563,-0.861137 0,-0.172227 0.06889,-0.620019 0.06889,-0.620019 z"
         id="path33"
         inkscape:label="left ear" /><path
         style="fill:#a57f58;fill-opacity:1;stroke:#604e30;stroke-width:0.165;stroke-dasharray:none;stroke-opacity:1"
         d="m 41.05902,16.051597 c 0,0 0.964475,-0.482237 1.205593,-0.482237 0.241117,0 0.964475,0.378901 1.06781,0.551128 0.103336,0.172227 0.137782,0.998919 0.103336,1.240037 -0.03445,0.241119 -0.31001,0.792247 -0.516681,0.964474 -0.206674,0.172228 -0.31001,0.310009 -0.31001,0.310009 0,0 -0.06889,-0.688909 -0.172228,-0.964473 -0.103335,-0.275564 -0.585573,-0.998919 -0.792247,-1.136701 -0.206671,-0.137782 -0.585573,-0.482237 -0.585573,-0.482237 z"
         id="path34"
         inkscape:label="right ear" /><path
         style="display:inline;fill:#ab7b59;fill-opacity:1;stroke:#604e30;stroke-width:0.165;stroke-dasharray:none;stroke-opacity:1"
         d="m 38.47561,19.323918 c 0,0 1.1367,0.137782 1.515599,0.31001 0.378902,0.172227 0.826694,0.551127 0.930029,0.826691 0.103336,0.275564 0.103336,0.68891 0,0.895583 -0.103335,0.206673 -0.792244,0.723355 -0.998918,0.826692 -0.206674,0.103336 -1.033365,0.310009 -1.37782,0.310009 -0.344454,0 -1.308929,-0.172227 -1.584492,-0.344455 -0.275564,-0.172227 -0.826691,-0.68891 -0.930029,-0.895582 -0.103336,-0.206673 -0.03445,-0.998919 0.103338,-1.171147 0.137782,-0.172227 0.861137,-0.551128 1.1367,-0.620019 0.275564,-0.06889 1.205593,-0.137782 1.205593,-0.137782 z"
         id="path36"
         inkscape:label="muzzle" /><path
         style="fill:#604e30;fill-opacity:1;stroke:#604e30;stroke-width:0.165;stroke-dasharray:none;stroke-opacity:1"
         d="m 38.510053,19.737264 c 0,0 0.55113,0.03445 0.654466,0.137782 0.103335,0.103336 0.241117,0.241118 0.06889,0.413346 -0.172228,0.172227 -0.378902,0.447791 -0.516684,0.482237 -0.137781,0.03445 -0.172227,0.206673 -0.06889,0.3789 0.103335,0.172227 0.447789,0.551128 0.688909,0.516682 0.241117,-0.03445 0.516681,-0.03445 0.585573,-0.310009 0.06889,-0.275564 0.103336,-0.516682 0.103336,-0.516682 0,0 0,0.585573 -0.241118,0.7578 -0.24112,0.172228 -0.482237,0.344455 -0.826693,0.06889 -0.344453,-0.275563 -0.551127,-0.654464 -0.551127,-0.654464 0,0 -0.137782,0.482237 -0.413346,0.620019 -0.275563,0.137782 -0.654465,0.241118 -0.895582,-0.03445 -0.241118,-0.275564 -0.206674,-0.895582 -0.206674,-0.895582 0,0 0.137781,0.344455 0.24112,0.551128 0.103335,0.206672 0.172228,0.344454 0.378899,0.344454 0.206674,0 0.378902,-0.06889 0.585573,-0.275564 0.206674,-0.206673 0.24112,-0.585573 0.24112,-0.585573 0,0 -0.275566,0 -0.413348,-0.206673 -0.137782,-0.206673 -0.310007,-0.447791 -0.137782,-0.654464 0.172228,-0.206673 0.241121,-0.172227 0.723355,-0.137782 z"
         id="path37"
         inkscape:label="nose" /><ellipse
         style="fill:#604e30;fill-opacity:1;stroke:#604e30;stroke-width:0.165;stroke-dasharray:none;stroke-opacity:1"
         id="path38"
         cx="37.511135"
         cy="18.273329"
         rx="0.24111842"
         ry="0.22389567"
         inkscape:label="left eye" /><ellipse
         style="fill:#604e30;fill-opacity:1;stroke:#604e30;stroke-width:0.165;stroke-dasharray:none;stroke-opacity:1"
         id="ellipse38"
         cx="39.646755"
         cy="18.238884"
         rx="0.24111842"
         ry="0.22389567"
         inkscape:label="right eye" /><path
         style="fill:#a57f58;fill-opacity:1;stroke:#604e30;stroke-width:0.165;stroke-dasharray:none;stroke-opacity:1"
         d="m 36.271099,23.422931 c 0,0 0.757798,0.344455 1.067808,0.378901 0.31001,0.03444 0.723355,0.06889 0.998921,0.06889 0.275564,0 0.895583,-0.03445 1.171147,-0.103337 0.275563,-0.06889 0.930026,-0.206673 1.102254,-0.310009 0.172228,-0.103337 0.275563,-0.103337 0.275563,-0.103337 0,0 0.413348,0.413346 0.654466,0.826692 0.241117,0.413346 0.688908,1.274483 0.723355,1.618938 0.03445,0.344455 0.06889,1.481155 0,1.791164 -0.06889,0.31001 -0.516681,1.377821 -0.688909,1.584495 -0.172228,0.206671 -0.861137,0.895582 -1.171147,1.033364 -0.310009,0.137782 -1.30893,0.413346 -1.722276,0.413346 -0.413345,0 -1.550045,-0.275564 -1.825609,-0.447792 -0.275563,-0.172228 -1.171146,-0.792247 -1.343374,-1.1367 -0.172228,-0.344456 -0.55113,-1.412267 -0.620019,-1.894504 -0.06889,-0.482235 0.103335,-1.446709 0.206674,-1.82561 0.103335,-0.3789 0.344453,-0.895583 0.516681,-1.171147 0.172227,-0.275563 0.654465,-0.723355 0.654465,-0.723355 z"
         id="path39"
         inkscape:label="tummy" /><path
         style="fill:#a57f58;fill-opacity:1;stroke:#604e30;stroke-width:0.165;stroke-dasharray:none;stroke-opacity:1"
         d="m 46.260289,21.562875 c 0,0 0.206674,0.482237 0.206674,0.723355 0,0.241119 -0.03445,0.723355 -0.137782,0.930028 -0.103338,0.206673 -0.06889,0.344455 -0.447791,0.206673 -0.378902,-0.137782 -0.654465,-0.516682 -0.826693,-0.723355 -0.172228,-0.206673 -0.413346,-0.482237 -0.447792,-0.68891 -0.03445,-0.206673 -0.172228,-0.310009 0.06889,-0.482237 0.241118,-0.172227 0.3789,-0.206673 0.757802,-0.172227 0.378899,0.03445 0.82669,0.206673 0.82669,0.206673 z"
         id="path40"
         inkscape:label="right paw" /><path
         style="fill:#a57f58;fill-opacity:1;stroke:#604e30;stroke-width:0.165;stroke-dasharray:none;stroke-opacity:1"
         d="m 33.584351,33.584351 c 0,0 0.413345,-0.137782 0.688908,0.03445 0.275564,0.172225 0.551127,0.241117 0.585574,0.551127 0.03445,0.310009 0,0.654462 -0.06889,0.895583 -0.06889,0.241117 -0.24112,0.551127 -0.55113,0.723354 -0.310009,0.172228 -0.516681,0.3789 -0.82669,0.206672 -0.31001,-0.172225 -0.551127,-0.447789 -0.551127,-0.757799 0,-0.310009 0,-0.723357 0.103335,-0.930029 0.103336,-0.206673 0.241118,-0.413345 0.378899,-0.516683 0.137782,-0.103336 0.241121,-0.206671 0.241121,-0.206671 z"
         id="path41"
         inkscape:label="left foot" /><path
         style="fill:#a57f58;fill-opacity:1;stroke:#604e30;stroke-width:0.165;stroke-dasharray:none;stroke-opacity:1"
         d="m 42.471287,34.411041 c 0,-0.03445 0.172225,-0.378899 0.516681,-0.551127 0.344455,-0.172228 0.723354,-0.447791 0.998918,-0.275563 0.275566,0.172227 0.31001,0.241117 0.413348,0.688908 0.103336,0.447792 0.103336,0.723355 -0.03445,1.067811 -0.137782,0.344456 -0.06889,0.447791 -0.482238,0.482238 -0.413345,0.03444 -0.620019,-0.137782 -0.930029,-0.482238 -0.310009,-0.344456 -0.482234,-0.930029 -0.482234,-0.930029 z"
         id="path42"
         inkscape:label="right foot" /></g><g
       id="g53"
       inkscape:label="left little bear"
       transform="matrix(1.4703408,0,0,1.4705591,-19.633955,25.480194)"
       style="display:inline"><path
         id="path43"
         style="display:inline;fill:#dcb06f;fill-opacity:1;stroke:#604e30;stroke-width:0.165;stroke-dasharray:none;stroke-opacity:1"
         inkscape:label="body"
         d="m 45.571379,20.736202 c -0.310009,0 -1.171375,0.44789 -1.446941,0.620117 -0.275561,0.172227 -0.861141,0.723166 -1.102258,0.964282 l -0.585494,0.585494 c 0,0 -0.06891,-0.06858 -0.103353,-0.240812 -0.03445,-0.172228 -0.20656,-0.275629 -0.378788,-0.413411 -0.172228,-0.137782 -0.654224,-0.378789 -0.654224,-0.378789 h -0.01602 c -0.320751,0.303418 -0.688315,0.624759 -0.845427,0.722954 -0.275561,0.172227 -1.618912,0.516764 -1.997811,0.516764 -0.378899,0 -1.791157,-0.344376 -2.101163,-0.585494 -0.163864,-0.127449 -0.432681,-0.37944 -0.681096,-0.629936 0.04424,0.05022 0.130225,0.147795 0.130225,0.147795 0,0 -0.344539,0.241006 -0.516764,0.378788 -0.172225,0.137782 -0.585494,0.551388 -0.585494,0.551388 0,0 -0.585885,-0.79241 -0.861446,-1.033529 -0.275564,-0.241118 -0.895428,-0.585688 -1.170988,-0.72347 -0.275564,-0.137782 -0.757626,-0.378788 -1.067636,-0.378788 -0.310007,0 -1.033563,0.06894 -1.240234,0.310058 -0.206674,0.241119 -0.137782,1.928792 0,2.273247 0.137782,0.344452 1.10247,1.308819 1.343587,1.481046 0.241118,0.172228 1.343071,0.7922 1.343071,0.7922 0,0 -0.309876,1.102308 -0.275436,1.412317 0.03445,0.310007 0.585691,1.722424 0.72347,2.032434 0.137785,0.310009 0.998906,1.205611 0.998906,1.205611 0,0 -0.516781,0.757614 -0.620117,0.964282 -0.103336,0.206674 -0.826838,1.171197 -0.930176,1.412317 -0.103336,0.241117 -0.72331,1.377903 -0.7922,1.619023 -0.06889,0.241117 0.0343,1.171039 0.172083,1.481046 0.137782,0.310009 1.068039,0.75792 1.44694,0.72347 0.378897,-0.03445 1.1712,-0.516621 1.412317,-0.688846 0.241118,-0.172225 0.861303,-0.964317 1.033528,-1.170988 0.172228,-0.206672 0.654418,-1.240269 0.7922,-1.44694 0.137782,-0.206672 0.654224,-1.102259 0.654224,-1.102259 0,0 0.689058,0.240986 0.930176,0.275436 0.241114,0.03444 0.998905,-0.240813 0.998905,-0.240813 0,0 0.654418,1.06785 0.7922,1.308964 0.137782,0.24112 0.75795,1.136576 0.930175,1.377694 0.172225,0.24112 0.757786,0.99876 0.998906,1.170988 0.241117,0.172228 1.308659,0.448035 1.549776,0.448035 0.24112,0 0.827017,-0.31027 0.964799,-0.551388 0.137782,-0.241117 0.275435,-1.240089 0.275435,-1.412317 0,-0.172222 -0.241168,-1.239749 -0.310058,-1.446423 -0.06889,-0.206671 -0.792394,-1.309175 -0.930176,-1.550293 -0.137782,-0.24112 -1.136365,-1.274341 -1.136365,-1.274341 0,0 0.619637,-0.688718 0.826306,-0.964282 0.206674,-0.275563 0.516782,-0.964834 0.620118,-1.171505 0.103338,-0.206674 0.275435,-1.033401 0.275435,-1.308964 0,-0.275561 -0.137459,-1.274341 -0.137459,-1.274341 0,0 0.447889,-0.206722 0.620117,-0.310058 0.172228,-0.103337 0.860784,-0.516442 1.033012,-0.654224 0.172227,-0.137782 0.689038,-0.757786 0.826823,-0.998905 0.137782,-0.241118 0.413238,-1.274552 0.378788,-1.51567 -0.03445,-0.241119 -0.275291,-0.792054 -0.447518,-0.964282 -0.172228,-0.172227 -0.826874,-0.344682 -1.13688,-0.344682 z" /><path
         style="display:inline;fill:#dcb06f;fill-opacity:1;stroke:#604e30;stroke-width:0.165;stroke-dasharray:none;stroke-opacity:1"
         d="m 38.510053,16.223824 c 0,0 0.482238,0.103337 0.688912,0.103337 0.206671,0 0.654463,0.03444 0.654463,0.03444 0,0 0.585573,-0.792246 0.826693,-0.930028 0.241117,-0.137782 1.412264,-0.723355 1.722273,-0.723355 0.31001,0 1.067811,0.206673 1.308928,0.413346 0.241121,0.206673 0.757802,1.205592 0.792248,1.550047 0.03445,0.344455 -0.172228,1.205592 -0.31001,1.412265 -0.137782,0.206673 -0.792247,0.7578 -0.998919,0.826692 -0.206673,0.06889 -0.723354,0.241118 -0.723354,0.241118 0,0 -0.103339,0.964473 -0.206674,1.205592 -0.103336,0.241118 -0.275564,0.723355 -0.447792,0.964473 -0.172228,0.241119 -1.102254,1.102256 -1.37782,1.274484 -0.275564,0.172227 -1.618938,0.516682 -1.997837,0.516682 -0.378902,0 -1.791166,-0.344455 -2.101175,-0.585573 -0.31001,-0.241119 -0.998919,-0.930029 -1.205593,-1.205593 -0.206671,-0.275563 -0.654463,-1.171146 -0.688909,-1.44671 -0.03445,-0.275564 0,-0.551128 0,-0.551128 0,0 -0.757801,-0.447791 -0.998918,-0.620018 -0.24112,-0.172228 -0.895583,-1.171147 -0.930029,-1.446711 -0.03445,-0.275564 0.172228,-1.412265 0.344456,-1.618938 0.172227,-0.206673 1.033364,-0.792246 1.308928,-0.861137 0.275563,-0.06889 1.343374,0.06889 1.653384,0.206673 0.310009,0.137782 0.82669,0.482237 1.033364,0.68891 0.206672,0.206673 0.447792,0.7578 0.447792,0.7578 0,0 0.413345,-0.06889 0.688908,-0.137782 0.275564,-0.06889 0.516681,-0.06889 0.516681,-0.06889 z"
         id="path44"
         inkscape:label="head" /><path
         style="fill:#f5afd1;fill-opacity:1;stroke:#604e30;stroke-width:0.165;stroke-dasharray:none;stroke-opacity:1"
         d="m 30.863156,21.59732 c 0,0 0.482237,-0.275564 0.757801,-0.275564 0.275564,0 0.620019,0.06889 0.792247,0.206673 0.172228,0.137782 0.378899,0.172228 0.378899,0.344455 0,0.172228 -0.551127,0.654465 -0.688908,0.861138 -0.137782,0.206672 -0.482238,0.585573 -0.688912,0.654464 -0.206671,0.06889 -0.241117,0.137782 -0.413345,-0.03445 -0.172228,-0.172227 -0.378899,-0.723355 -0.378899,-0.964473 0,-0.241119 0.241117,-0.792247 0.241117,-0.792247 z"
         id="path45"
         inkscape:label="left paw" /><path
         style="fill:#f5afd1;fill-opacity:1;stroke:#604e30;stroke-width:0.165;stroke-dasharray:none;stroke-opacity:1"
         d="m 33.65324,16.223824 c 0,0 0.723355,-0.585573 0.930029,-0.585573 0.206674,0 0.861137,0.06889 0.998919,0.137782 0.137781,0.06889 0.447791,0.31001 0.447791,0.31001 0,0 -0.723355,0.413345 -0.895583,0.620018 -0.172228,0.206673 -0.551127,0.654464 -0.585573,0.964474 -0.03445,0.310009 -0.137782,0.861137 -0.137782,0.861137 0,0 -0.447791,-0.585573 -0.551127,-0.826692 -0.103336,-0.241118 -0.275563,-0.688909 -0.275563,-0.861137 0,-0.172227 0.06889,-0.620019 0.06889,-0.620019 z"
         id="path46"
         inkscape:label="left ear" /><path
         style="fill:#f5afd1;fill-opacity:1;stroke:#604e30;stroke-width:0.165;stroke-dasharray:none;stroke-opacity:1"
         d="m 41.05902,16.051597 c 0,0 0.964475,-0.482237 1.205593,-0.482237 0.241117,0 0.964475,0.378901 1.06781,0.551128 0.103336,0.172227 0.137782,0.998919 0.103336,1.240037 -0.03445,0.241119 -0.31001,0.792247 -0.516681,0.964474 -0.206674,0.172228 -0.31001,0.310009 -0.31001,0.310009 0,0 -0.06889,-0.688909 -0.172228,-0.964473 -0.103335,-0.275564 -0.585573,-0.998919 -0.792247,-1.136701 -0.206671,-0.137782 -0.585573,-0.482237 -0.585573,-0.482237 z"
         id="path47"
         inkscape:label="right ear" /><path
         style="display:inline;fill:#ab7b59;fill-opacity:1;stroke:#604e30;stroke-width:0.165;stroke-dasharray:none;stroke-opacity:1"
         d="m 38.47561,19.323918 c 0,0 1.1367,0.137782 1.515599,0.31001 0.378902,0.172227 0.826694,0.551127 0.930029,0.826691 0.103336,0.275564 0.103336,0.68891 0,0.895583 -0.103335,0.206673 -0.792244,0.723355 -0.998918,0.826692 -0.206674,0.103336 -1.033365,0.310009 -1.37782,0.310009 -0.344454,0 -1.308929,-0.172227 -1.584492,-0.344455 -0.275564,-0.172227 -0.826691,-0.68891 -0.930029,-0.895582 -0.103336,-0.206673 -0.03445,-0.998919 0.103338,-1.171147 0.137782,-0.172227 0.861137,-0.551128 1.1367,-0.620019 0.275564,-0.06889 1.205593,-0.137782 1.205593,-0.137782 z"
         id="path48"
         inkscape:label="muzzle" /><path
         style="fill:#604e30;fill-opacity:1;stroke:#604e30;stroke-width:0.165;stroke-dasharray:none;stroke-opacity:1"
         d="m 38.510053,19.737264 c 0,0 0.55113,0.03445 0.654466,0.137782 0.103335,0.103336 0.241117,0.241118 0.06889,0.413346 -0.172228,0.172227 -0.378902,0.447791 -0.516684,0.482237 -0.137781,0.03445 -0.172227,0.206673 -0.06889,0.3789 0.103335,0.172227 0.447789,0.551128 0.688909,0.516682 0.241117,-0.03445 0.516681,-0.03445 0.585573,-0.310009 0.06889,-0.275564 0.103336,-0.516682 0.103336,-0.516682 0,0 0,0.585573 -0.241118,0.7578 -0.24112,0.172228 -0.482237,0.344455 -0.826693,0.06889 -0.344453,-0.275563 -0.551127,-0.654464 -0.551127,-0.654464 0,0 -0.137782,0.482237 -0.413346,0.620019 -0.275563,0.137782 -0.654465,0.241118 -0.895582,-0.03445 -0.241118,-0.275564 -0.206674,-0.895582 -0.206674,-0.895582 0,0 0.137781,0.344455 0.24112,0.551128 0.103335,0.206672 0.172228,0.344454 0.378899,0.344454 0.206674,0 0.378902,-0.06889 0.585573,-0.275564 0.206674,-0.206673 0.24112,-0.585573 0.24112,-0.585573 0,0 -0.275566,0 -0.413348,-0.206673 -0.137782,-0.206673 -0.310007,-0.447791 -0.137782,-0.654464 0.172228,-0.206673 0.241121,-0.172227 0.723355,-0.137782 z"
         id="path49"
         inkscape:label="nose" /><ellipse
         style="fill:#604e30;fill-opacity:1;stroke:#604e30;stroke-width:0.165;stroke-dasharray:none;stroke-opacity:1"
         id="ellipse49"
         cx="37.511135"
         cy="18.273329"
         rx="0.24111842"
         ry="0.22389567"
         inkscape:label="left eye" /><ellipse
         style="fill:#604e30;fill-opacity:1;stroke:#604e30;stroke-width:0.165;stroke-dasharray:none;stroke-opacity:1"
         id="ellipse50"
         cx="39.646755"
         cy="18.238884"
         rx="0.24111842"
         ry="0.22389567"
         inkscape:label="right eye" /><path
         style="fill:#f5afd1;fill-opacity:1;stroke:#604e30;stroke-width:0.165;stroke-dasharray:none;stroke-opacity:1"
         d="m 36.271099,23.422931 c 0,0 0.757798,0.344455 1.067808,0.378901 0.31001,0.03444 0.723355,0.06889 0.998921,0.06889 0.275564,0 0.895583,-0.03445 1.171147,-0.103337 0.275563,-0.06889 0.930026,-0.206673 1.102254,-0.310009 0.172228,-0.103337 0.275563,-0.103337 0.275563,-0.103337 0,0 0.413348,0.413346 0.654466,0.826692 0.241117,0.413346 0.688908,1.274483 0.723355,1.618938 0.03445,0.344455 0.06889,1.481155 0,1.791164 -0.06889,0.31001 -0.516681,1.377821 -0.688909,1.584495 -0.172228,0.206671 -0.861137,0.895582 -1.171147,1.033364 -0.310009,0.137782 -1.30893,0.413346 -1.722276,0.413346 -0.413345,0 -1.550045,-0.275564 -1.825609,-0.447792 -0.275563,-0.172228 -1.171146,-0.792247 -1.343374,-1.1367 -0.172228,-0.344456 -0.55113,-1.412267 -0.620019,-1.894504 -0.06889,-0.482235 0.103335,-1.446709 0.206674,-1.82561 0.103335,-0.3789 0.344453,-0.895583 0.516681,-1.171147 0.172227,-0.275563 0.654465,-0.723355 0.654465,-0.723355 z"
         id="path50"
         inkscape:label="tummy" /><path
         style="fill:#f5afd1;fill-opacity:1;stroke:#604e30;stroke-width:0.165;stroke-dasharray:none;stroke-opacity:1"
         d="m 46.260289,21.562875 c 0,0 0.206674,0.482237 0.206674,0.723355 0,0.241119 -0.03445,0.723355 -0.137782,0.930028 -0.103338,0.206673 -0.06889,0.344455 -0.447791,0.206673 -0.378902,-0.137782 -0.654465,-0.516682 -0.826693,-0.723355 -0.172228,-0.206673 -0.413346,-0.482237 -0.447792,-0.68891 -0.03445,-0.206673 -0.172228,-0.310009 0.06889,-0.482237 0.241118,-0.172227 0.3789,-0.206673 0.757802,-0.172227 0.378899,0.03445 0.82669,0.206673 0.82669,0.206673 z"
         id="path51"
         inkscape:label="right paw" /><path
         style="fill:#f5afd1;fill-opacity:1;stroke:#604e30;stroke-width:0.165;stroke-dasharray:none;stroke-opacity:1"
         d="m 33.584351,33.584351 c 0,0 0.413345,-0.137782 0.688908,0.03445 0.275564,0.172225 0.551127,0.241117 0.585574,0.551127 0.03445,0.310009 0,0.654462 -0.06889,0.895583 -0.06889,0.241117 -0.24112,0.551127 -0.55113,0.723354 -0.310009,0.172228 -0.516681,0.3789 -0.82669,0.206672 -0.31001,-0.172225 -0.551127,-0.447789 -0.551127,-0.757799 0,-0.310009 0,-0.723357 0.103335,-0.930029 0.103336,-0.206673 0.241118,-0.413345 0.378899,-0.516683 0.137782,-0.103336 0.241121,-0.206671 0.241121,-0.206671 z"
         id="path52"
         inkscape:label="left foot" /><path
         style="fill:#f5afd1;fill-opacity:1;stroke:#604e30;stroke-width:0.165;stroke-dasharray:none;stroke-opacity:1"
         d="m 42.471287,34.411041 c 0,-0.03445 0.172225,-0.378899 0.516681,-0.551127 0.344455,-0.172228 0.723354,-0.447791 0.998918,-0.275563 0.275566,0.172227 0.31001,0.241117 0.413348,0.688908 0.103336,0.447792 0.103336,0.723355 -0.03445,1.067811 -0.137782,0.344456 -0.06889,0.447791 -0.482238,0.482238 -0.413345,0.03444 -0.620019,-0.137782 -0.930029,-0.482238 -0.310009,-0.344456 -0.482234,-0.930029 -0.482234,-0.930029 z"
         id="path53"
         inkscape:label="right foot" /></g><g
       id="g64"
       inkscape:label="right little bear"
       transform="matrix(1.4703408,0,0,1.4705591,39.857154,25.552077)"
       style="display:inline"><path
         id="path54"
         style="display:inline;fill:#dcb06f;fill-opacity:1;stroke:#604e30;stroke-width:0.165;stroke-dasharray:none;stroke-opacity:1"
         inkscape:label="body"
         d="m 45.571379,20.736202 c -0.310009,0 -1.171375,0.44789 -1.446941,0.620117 -0.275561,0.172227 -0.861141,0.723166 -1.102258,0.964282 l -0.585494,0.585494 c 0,0 -0.06891,-0.06858 -0.103353,-0.240812 -0.03445,-0.172228 -0.20656,-0.275629 -0.378788,-0.413411 -0.172228,-0.137782 -0.654224,-0.378789 -0.654224,-0.378789 h -0.01602 c -0.320751,0.303418 -0.688315,0.624759 -0.845427,0.722954 -0.275561,0.172227 -1.618912,0.516764 -1.997811,0.516764 -0.378899,0 -1.791157,-0.344376 -2.101163,-0.585494 -0.163864,-0.127449 -0.432681,-0.37944 -0.681096,-0.629936 0.04424,0.05022 0.130225,0.147795 0.130225,0.147795 0,0 -0.344539,0.241006 -0.516764,0.378788 -0.172225,0.137782 -0.585494,0.551388 -0.585494,0.551388 0,0 -0.585885,-0.79241 -0.861446,-1.033529 -0.275564,-0.241118 -0.895428,-0.585688 -1.170988,-0.72347 -0.275564,-0.137782 -0.757626,-0.378788 -1.067636,-0.378788 -0.310007,0 -1.033563,0.06894 -1.240234,0.310058 -0.206674,0.241119 -0.137782,1.928792 0,2.273247 0.137782,0.344452 1.10247,1.308819 1.343587,1.481046 0.241118,0.172228 1.343071,0.7922 1.343071,0.7922 0,0 -0.309876,1.102308 -0.275436,1.412317 0.03445,0.310007 0.585691,1.722424 0.72347,2.032434 0.137785,0.310009 0.998906,1.205611 0.998906,1.205611 0,0 -0.516781,0.757614 -0.620117,0.964282 -0.103336,0.206674 -0.826838,1.171197 -0.930176,1.412317 -0.103336,0.241117 -0.72331,1.377903 -0.7922,1.619023 -0.06889,0.241117 0.0343,1.171039 0.172083,1.481046 0.137782,0.310009 1.068039,0.75792 1.44694,0.72347 0.378897,-0.03445 1.1712,-0.516621 1.412317,-0.688846 0.241118,-0.172225 0.861303,-0.964317 1.033528,-1.170988 0.172228,-0.206672 0.654418,-1.240269 0.7922,-1.44694 0.137782,-0.206672 0.654224,-1.102259 0.654224,-1.102259 0,0 0.689058,0.240986 0.930176,0.275436 0.241114,0.03444 0.998905,-0.240813 0.998905,-0.240813 0,0 0.654418,1.06785 0.7922,1.308964 0.137782,0.24112 0.75795,1.136576 0.930175,1.377694 0.172225,0.24112 0.757786,0.99876 0.998906,1.170988 0.241117,0.172228 1.308659,0.448035 1.549776,0.448035 0.24112,0 0.827017,-0.31027 0.964799,-0.551388 0.137782,-0.241117 0.275435,-1.240089 0.275435,-1.412317 0,-0.172222 -0.241168,-1.239749 -0.310058,-1.446423 -0.06889,-0.206671 -0.792394,-1.309175 -0.930176,-1.550293 -0.137782,-0.24112 -1.136365,-1.274341 -1.136365,-1.274341 0,0 0.619637,-0.688718 0.826306,-0.964282 0.206674,-0.275563 0.516782,-0.964834 0.620118,-1.171505 0.103338,-0.206674 0.275435,-1.033401 0.275435,-1.308964 0,-0.275561 -0.137459,-1.274341 -0.137459,-1.274341 0,0 0.447889,-0.206722 0.620117,-0.310058 0.172228,-0.103337 0.860784,-0.516442 1.033012,-0.654224 0.172227,-0.137782 0.689038,-0.757786 0.826823,-0.998905 0.137782,-0.241118 0.413238,-1.274552 0.378788,-1.51567 -0.03445,-0.241119 -0.275291,-0.792054 -0.447518,-0.964282 -0.172228,-0.172227 -0.826874,-0.344682 -1.13688,-0.344682 z" /><path
         style="display:inline;fill:#dcb06f;fill-opacity:1;stroke:#604e30;stroke-width:0.165;stroke-dasharray:none;stroke-opacity:1"
         d="m 38.510053,16.223824 c 0,0 0.482238,0.103337 0.688912,0.103337 0.206671,0 0.654463,0.03444 0.654463,0.03444 0,0 0.585573,-0.792246 0.826693,-0.930028 0.241117,-0.137782 1.412264,-0.723355 1.722273,-0.723355 0.31001,0 1.067811,0.206673 1.308928,0.413346 0.241121,0.206673 0.757802,1.205592 0.792248,1.550047 0.03445,0.344455 -0.172228,1.205592 -0.31001,1.412265 -0.137782,0.206673 -0.792247,0.7578 -0.998919,0.826692 -0.206673,0.06889 -0.723354,0.241118 -0.723354,0.241118 0,0 -0.103339,0.964473 -0.206674,1.205592 -0.103336,0.241118 -0.275564,0.723355 -0.447792,0.964473 -0.172228,0.241119 -1.102254,1.102256 -1.37782,1.274484 -0.275564,0.172227 -1.618938,0.516682 -1.997837,0.516682 -0.378902,0 -1.791166,-0.344455 -2.101175,-0.585573 -0.31001,-0.241119 -0.998919,-0.930029 -1.205593,-1.205593 -0.206671,-0.275563 -0.654463,-1.171146 -0.688909,-1.44671 -0.03445,-0.275564 0,-0.551128 0,-0.551128 0,0 -0.757801,-0.447791 -0.998918,-0.620018 -0.24112,-0.172228 -0.895583,-1.171147 -0.930029,-1.446711 -0.03445,-0.275564 0.172228,-1.412265 0.344456,-1.618938 0.172227,-0.206673 1.033364,-0.792246 1.308928,-0.861137 0.275563,-0.06889 1.343374,0.06889 1.653384,0.206673 0.310009,0.137782 0.82669,0.482237 1.033364,0.68891 0.206672,0.206673 0.447792,0.7578 0.447792,0.7578 0,0 0.413345,-0.06889 0.688908,-0.137782 0.275564,-0.06889 0.516681,-0.06889 0.516681,-0.06889 z"
         id="path55"
         inkscape:label="head" /><path
         style="fill:#9fd5ed;fill-opacity:1;stroke:#604e30;stroke-width:0.165;stroke-dasharray:none;stroke-opacity:1"
         d="m 30.863156,21.59732 c 0,0 0.482237,-0.275564 0.757801,-0.275564 0.275564,0 0.620019,0.06889 0.792247,0.206673 0.172228,0.137782 0.378899,0.172228 0.378899,0.344455 0,0.172228 -0.551127,0.654465 -0.688908,0.861138 -0.137782,0.206672 -0.482238,0.585573 -0.688912,0.654464 -0.206671,0.06889 -0.241117,0.137782 -0.413345,-0.03445 -0.172228,-0.172227 -0.378899,-0.723355 -0.378899,-0.964473 0,-0.241119 0.241117,-0.792247 0.241117,-0.792247 z"
         id="path56"
         inkscape:label="left paw" /><path
         style="fill:#9fd5ed;fill-opacity:1;stroke:#604e30;stroke-width:0.165;stroke-dasharray:none;stroke-opacity:1"
         d="m 33.65324,16.223824 c 0,0 0.723355,-0.585573 0.930029,-0.585573 0.206674,0 0.861137,0.06889 0.998919,0.137782 0.137781,0.06889 0.447791,0.31001 0.447791,0.31001 0,0 -0.723355,0.413345 -0.895583,0.620018 -0.172228,0.206673 -0.551127,0.654464 -0.585573,0.964474 -0.03445,0.310009 -0.137782,0.861137 -0.137782,0.861137 0,0 -0.447791,-0.585573 -0.551127,-0.826692 -0.103336,-0.241118 -0.275563,-0.688909 -0.275563,-0.861137 0,-0.172227 0.06889,-0.620019 0.06889,-0.620019 z"
         id="path57"
         inkscape:label="left ear" /><path
         style="fill:#9fd5ed;fill-opacity:1;stroke:#604e30;stroke-width:0.165;stroke-dasharray:none;stroke-opacity:1"
         d="m 41.05902,16.051597 c 0,0 0.964475,-0.482237 1.205593,-0.482237 0.241117,0 0.964475,0.378901 1.06781,0.551128 0.103336,0.172227 0.137782,0.998919 0.103336,1.240037 -0.03445,0.241119 -0.31001,0.792247 -0.516681,0.964474 -0.206674,0.172228 -0.31001,0.310009 -0.31001,0.310009 0,0 -0.06889,-0.688909 -0.172228,-0.964473 -0.103335,-0.275564 -0.585573,-0.998919 -0.792247,-1.136701 -0.206671,-0.137782 -0.585573,-0.482237 -0.585573,-0.482237 z"
         id="path58"
         inkscape:label="right ear" /><path
         style="display:inline;fill:#ab7b59;fill-opacity:1;stroke:#604e30;stroke-width:0.165;stroke-dasharray:none;stroke-opacity:1"
         d="m 38.47561,19.323918 c 0,0 1.1367,0.137782 1.515599,0.31001 0.378902,0.172227 0.826694,0.551127 0.930029,0.826691 0.103336,0.275564 0.103336,0.68891 0,0.895583 -0.103335,0.206673 -0.792244,0.723355 -0.998918,0.826692 -0.206674,0.103336 -1.033365,0.310009 -1.37782,0.310009 -0.344454,0 -1.308929,-0.172227 -1.584492,-0.344455 -0.275564,-0.172227 -0.826691,-0.68891 -0.930029,-0.895582 -0.103336,-0.206673 -0.03445,-0.998919 0.103338,-1.171147 0.137782,-0.172227 0.861137,-0.551128 1.1367,-0.620019 0.275564,-0.06889 1.205593,-0.137782 1.205593,-0.137782 z"
         id="path59"
         inkscape:label="muzzle" /><path
         style="fill:#604e30;fill-opacity:1;stroke:#604e30;stroke-width:0.165;stroke-dasharray:none;stroke-opacity:1"
         d="m 38.510053,19.737264 c 0,0 0.55113,0.03445 0.654466,0.137782 0.103335,0.103336 0.241117,0.241118 0.06889,0.413346 -0.172228,0.172227 -0.378902,0.447791 -0.516684,0.482237 -0.137781,0.03445 -0.172227,0.206673 -0.06889,0.3789 0.103335,0.172227 0.447789,0.551128 0.688909,0.516682 0.241117,-0.03445 0.516681,-0.03445 0.585573,-0.310009 0.06889,-0.275564 0.103336,-0.516682 0.103336,-0.516682 0,0 0,0.585573 -0.241118,0.7578 -0.24112,0.172228 -0.482237,0.344455 -0.826693,0.06889 -0.344453,-0.275563 -0.551127,-0.654464 -0.551127,-0.654464 0,0 -0.137782,0.482237 -0.413346,0.620019 -0.275563,0.137782 -0.654465,0.241118 -0.895582,-0.03445 -0.241118,-0.275564 -0.206674,-0.895582 -0.206674,-0.895582 0,0 0.137781,0.344455 0.24112,0.551128 0.103335,0.206672 0.172228,0.344454 0.378899,0.344454 0.206674,0 0.378902,-0.06889 0.585573,-0.275564 0.206674,-0.206673 0.24112,-0.585573 0.24112,-0.585573 0,0 -0.275566,0 -0.413348,-0.206673 -0.137782,-0.206673 -0.310007,-0.447791 -0.137782,-0.654464 0.172228,-0.206673 0.241121,-0.172227 0.723355,-0.137782 z"
         id="path60"
         inkscape:label="nose" /><ellipse
         style="fill:#604e30;fill-opacity:1;stroke:#604e30;stroke-width:0.165;stroke-dasharray:none;stroke-opacity:1"
         id="ellipse60"
         cx="37.511135"
         cy="18.273329"
         rx="0.24111842"
         ry="0.22389567"
         inkscape:label="left eye" /><ellipse
         style="fill:#604e30;fill-opacity:1;stroke:#604e30;stroke-width:0.165;stroke-dasharray:none;stroke-opacity:1"
         id="ellipse61"
         cx="39.646755"
         cy="18.238884"
         rx="0.24111842"
         ry="0.22389567"
         inkscape:label="right eye" /><path
         style="fill:#9fd5ed;fill-opacity:1;stroke:#303060;stroke-width:0.165;stroke-dasharray:none;stroke-opacity:1"
         d="m 36.271099,23.422931 c 0,0 0.757798,0.344455 1.067808,0.378901 0.31001,0.03444 0.723355,0.06889 0.998921,0.06889 0.275564,0 0.895583,-0.03445 1.171147,-0.103337 0.275563,-0.06889 0.930026,-0.206673 1.102254,-0.310009 0.172228,-0.103337 0.275563,-0.103337 0.275563,-0.103337 0,0 0.413348,0.413346 0.654466,0.826692 0.241117,0.413346 0.688908,1.274483 0.723355,1.618938 0.03445,0.344455 0.06889,1.481155 0,1.791164 -0.06889,0.31001 -0.516681,1.377821 -0.688909,1.584495 -0.172228,0.206671 -0.861137,0.895582 -1.171147,1.033364 -0.310009,0.137782 -1.30893,0.413346 -1.722276,0.413346 -0.413345,0 -1.550045,-0.275564 -1.825609,-0.447792 -0.275563,-0.172228 -1.171146,-0.792247 -1.343374,-1.1367 -0.172228,-0.344456 -0.55113,-1.412267 -0.620019,-1.894504 -0.06889,-0.482235 0.103335,-1.446709 0.206674,-1.82561 0.103335,-0.3789 0.344453,-0.895583 0.516681,-1.171147 0.172227,-0.275563 0.654465,-0.723355 0.654465,-0.723355 z"
         id="path61"
         inkscape:label="tummy" /><path
         style="fill:#9fd5ed;fill-opacity:1;stroke:#303060;stroke-width:0.165;stroke-dasharray:none;stroke-opacity:1"
         d="m 46.260289,21.562875 c 0,0 0.206674,0.482237 0.206674,0.723355 0,0.241119 -0.03445,0.723355 -0.137782,0.930028 -0.103338,0.206673 -0.06889,0.344455 -0.447791,0.206673 -0.378902,-0.137782 -0.654465,-0.516682 -0.826693,-0.723355 -0.172228,-0.206673 -0.413346,-0.482237 -0.447792,-0.68891 -0.03445,-0.206673 -0.172228,-0.310009 0.06889,-0.482237 0.241118,-0.172227 0.3789,-0.206673 0.757802,-0.172227 0.378899,0.03445 0.82669,0.206673 0.82669,0.206673 z"
         id="path62"
         inkscape:label="right paw" /><path
         style="fill:#9fd5ed;fill-opacity:1;stroke:#303060;stroke-width:0.165;stroke-dasharray:none;stroke-opacity:1"
         d="m 33.584351,33.584351 c 0,0 0.413345,-0.137782 0.688908,0.03445 0.275564,0.172225 0.551127,0.241117 0.585574,0.551127 0.03445,0.310009 0,0.654462 -0.06889,0.895583 -0.06889,0.241117 -0.24112,0.551127 -0.55113,0.723354 -0.310009,0.172228 -0.516681,0.3789 -0.82669,0.206672 -0.31001,-0.172225 -0.551127,-0.447789 -0.551127,-0.757799 0,-0.310009 0,-0.723357 0.103335,-0.930029 0.103336,-0.206673 0.241118,-0.413345 0.378899,-0.516683 0.137782,-0.103336 0.241121,-0.206671 0.241121,-0.206671 z"
         id="path63"
         inkscape:label="left foot" /><path
         style="fill:#9fd5ed;fill-opacity:1;stroke:#303060;stroke-width:0.165;stroke-dasharray:none;stroke-opacity:1"
         d="m 42.471287,34.411041 c 0,-0.03445 0.172225,-0.378899 0.516681,-0.551127 0.344455,-0.172228 0.723354,-0.447791 0.998918,-0.275563 0.275566,0.172227 0.31001,0.241117 0.413348,0.688908 0.103336,0.447792 0.103336,0.723355 -0.03445,1.067811 -0.137782,0.344456 -0.06889,0.447791 -0.482238,0.482238 -0.413345,0.03444 -0.620019,-0.137782 -0.930029,-0.482238 -0.310009,-0.344456 -0.482234,-0.930029 -0.482234,-0.930029 z"
         id="path64"
         inkscape:label="right foot" /></g></g><path
     id="path76"
     style="fill:#01a9f9;fill-opacity:1;stroke:none;stroke-width:0.344584;stroke-dasharray:none;stroke-opacity:1"
     d="m 76.753993,78.374093 c 0.163416,-0.0468 0.397088,-0.11673 0.583953,-0.0468 0.187015,0.0701 0.373758,0.2336 0.560631,0.46718 0.186859,0.2336 0.327022,0.84092 0.373749,1.09788 0.04675,0.25693 0.186887,0.93436 0.186887,1.1913 0,0.25696 -0.02333,1.611789 -0.02333,1.822019 0,0.21023 -0.04679,2.03223 -0.04679,2.24248 0,0.21022 -0.140117,1.47164 -0.140117,1.63518 0,0.16337 -0.04677,1.21462 -0.04677,1.42488 0,0.2102 0.07006,0.58395 -0.09341,0.70075 -0.163378,0.11619 -0.280302,0.21022 -0.467176,0.21022 -0.186941,0 -0.467175,-0.14005 -0.537263,-0.30357 -0.07005,-0.16341 0.07015,-0.98118 0.07015,-1.21476 0,-0.23359 0.163411,-1.47162 0.163411,-1.61177 0,-0.14006 0.116733,-1.21467 0.116733,-1.30812 0,-0.0934 -0.04687,-1.3081 -0.04687,-1.47161 0,-0.1634 0.02334,-1.02781 -0.02335,-1.308109 -0.04687,-0.28032 -0.163433,-0.95773 -0.233612,-1.30811 -0.07012,-0.3504 -0.186836,-1.05117 -0.25692,-1.28476 -0.07015,-0.2336 -0.140102,-0.53726 -0.140102,-0.72413 0,-0.18695 0,-0.21025 0,-0.21025 z m -3.783983,2.07878 c -0.303671,0 -0.723988,0.0466 -0.910848,0.11648 -0.186935,0.0701 -0.537603,0.374 -0.677778,0.60757 -10e-7,0 -0.0939,0.79486 -0.0939,0.958369 v 1.09757 c 0,0.16342 0.140626,0.67719 0.163849,0.8407 0.02344,0.16339 0.256941,1.00458 0.326991,1.19144 0.07002,0.18697 0.490817,0.84125 0.607593,1.00479 0.116634,0.16341 0.677288,0.39677 0.910875,0.44353 0.233596,0.0468 1.378445,0.13993 1.658716,0.11645 0.28035,-0.0234 0.840564,-0.35057 1.027446,-0.53745 0.186838,-0.18691 0.327447,-0.84092 0.420901,-1.05114 0.09341,-0.21025 0.07012,-0.98091 0.07012,-1.23787 0,-0.25694 -0.140667,-0.93409 -0.234205,-1.16771 -0.09345,-0.23362 -0.466703,-0.72367 -0.630221,-0.957249 -0.163384,-0.23361 -0.608124,-0.51457 -0.771639,-0.63139 -0.163411,-0.11673 -0.676868,-0.44363 -0.88712,-0.5137 -0.210186,-0.0701 -0.677313,-0.28054 -0.980998,-0.28054 z m 0.489971,0.90113 c 0.08241,-0.001 0.178358,0.009 0.280575,0.0572 0.327029,0.14011 0.537288,0.32655 0.724155,0.630239 0.186947,0.30367 0.443945,0.79381 0.46731,1.02741 0.02338,0.2336 0.187072,0.95863 0.1403,1.23893 -0.04682,0.28032 -0.25678,1.12114 -0.513722,1.308 -0.256963,0.18689 -0.397449,0.46691 -0.677756,0.44357 -0.280316,-0.0234 -0.74727,-0.49053 -0.840711,-0.72413 -0.09339,-0.23361 -0.280579,-1.07475 -0.280579,-1.26162 0,-0.18691 0.02352,-1.23804 0.07021,-1.4483 0.04691,-0.21025 0.327033,-1.191459 0.327033,-1.191459 0,0 0.121056,-0.0771 0.303246,-0.0799 z m -6.32976,0.007 c -0.303694,0 -0.723974,0.0467 -0.910848,0.11652 -0.186881,0.0702 -0.537601,0.37402 -0.677757,0.607589 -1e-6,0 -0.09386,0.79487 -0.09386,0.95834 v 1.09755 c 0,0.16341 0.140582,0.6772 0.16383,0.8407 0.02329,0.16342 0.256906,1.0046 0.326984,1.19145 0.07001,0.18689 0.490831,0.84126 0.607608,1.00476 0.116761,0.1634 0.677251,0.39682 0.910842,0.44355 0.233599,0.0467 1.378465,0.13993 1.658752,0.11656 0.280322,-0.0233 0.840519,-0.35056 1.027412,-0.53743 0.186931,-0.18693 0.327452,-0.84094 0.420893,-1.05116 0.09328,-0.21024 0.07022,-0.98091 0.07022,-1.23786 0,-0.25694 -0.140781,-0.93411 -0.234201,-1.16771 -0.09339,-0.23359 -0.466734,-0.72366 -0.630265,-0.95725 -0.163394,-0.2336 -0.608114,-0.51453 -0.771646,-0.63134 -0.163406,-0.11666 -0.676859,-0.443659 -0.887096,-0.513719 -0.210224,-0.0701 -0.677333,-0.28056 -0.98101,-0.28056 z m 0.489959,0.901149 c 0.08268,-0.001 0.178496,0.009 0.280602,0.0572 0.327042,0.14003 0.537271,0.32658 0.72416,0.63024 0.186911,0.30368 0.443925,0.79381 0.467288,1.02741 0.02335,0.2336 0.187041,0.95865 0.140244,1.23894 -0.04684,0.28032 -0.256781,1.12113 -0.513729,1.30801 -0.256926,0.18697 -0.397422,0.46693 -0.677749,0.44356 -0.280291,-0.0234 -0.747247,-0.49056 -0.840682,-0.72415 -0.09349,-0.23359 -0.28059,-1.07472 -0.28059,-1.26159 0,-0.1869 0.02344,-1.23807 0.07016,-1.44831 0.04689,-0.21023 0.32702,-1.19144 0.32702,-1.19144 0,0 0.120929,-0.0772 0.30323,-0.08 z m -8.315466,-3.329999 c 0.07005,-0.0468 0.07005,-0.16341 0.256957,-0.2102 0.186928,-0.0468 0.256942,-0.0701 0.443811,0.0701 0.186907,0.14008 0.25693,0.584 0.280332,0.81759 0.02336,0.23358 0.04677,1.05113 0.04677,1.33147 0,0.28029 0.02333,1.378169 0.02333,1.378169 0,0 0.560646,0 0.817563,0 0.256968,0 0.677427,-0.0233 0.957742,0.0468 0.280288,0.0701 0.724119,0.21022 0.981058,0.3971 0.256973,0.18692 0.537281,0.60735 0.700795,0.84093 0.163425,0.23359 0.420468,0.7475 0.467195,1.00444 0.04678,0.25695 0.186956,0.79422 0.186956,1.07454 0,0.2803 0.02336,1.72857 0,1.91544 -0.02342,0.1869 -0.07004,0.70079 -0.16341,0.93439 -0.09332,0.23356 -0.186879,0.23356 -0.490553,0.32706 -0.30364,0.0934 -0.42044,-0.0462 -0.630672,-0.21033 -0.210236,-0.1634 -0.116776,-0.91097 -0.04682,-1.1679 0.07014,-0.25697 0.07014,-0.86431 0.07014,-1.168 0,-0.30364 0.07014,-1.02778 0.02337,-1.28475 -0.04679,-0.25693 -0.25694,-0.67742 -0.373737,-0.88766 -0.116719,-0.21023 -0.513889,-0.60732 -0.747468,-0.74748 -0.233605,-0.14014 -0.65407,-0.30366 -0.887653,-0.30366 -0.233603,0 -0.840919,0.0233 -0.840919,0.0233 0,0 -0.04682,0.81756 -0.09343,1.05115 -0.04687,0.2336 -0.186911,1.21467 -0.210255,1.47163 -0.02333,0.257 -0.02333,0.257 -0.02333,0.257 0,0 -0.09342,0.79419 -0.140088,1.1446 -0.04677,0.35038 -0.09338,1.26141 -0.186869,1.40152 -0.09331,0.14011 -0.39709,0.0935 -0.607316,0.11657 -0.210242,0.0231 -0.373729,0 -0.49054,-0.11657 -0.116704,-0.11648 -0.116704,-0.51386 -0.09336,-0.74747 0.02351,-0.23359 0.233608,-0.95774 0.280311,-1.21466 0.04687,-0.25698 0.256969,-1.19132 0.303694,-1.54172 0.04681,-0.35039 0.186846,-1.26138 0.186846,-1.47163 0,-0.21022 -0.02333,-1.35483 -0.02333,-1.588409 0,-0.23359 0,-1.28476 0,-1.56507 0,-0.2803 0.02333,-1.37817 0.02333,-1.37817 z m -2.055578,1.96215 c -0.04684,-0.0701 -0.794228,-0.44381 -1.121256,-0.53726 -0.327009,-0.0934 -0.77085,-0.23357 -1.097882,-0.21023 -0.327025,0.0234 -1.004455,0.56062 -1.167956,0.81757 -0.163418,0.25695 -0.677397,1.097879 -0.724125,1.401559 -0.04684,0.30368 -0.30369,1.44827 -0.327036,1.79865 -0.02337,0.35038 0,1.35483 0.09338,1.65848 0.09329,0.30367 0.373754,1.16797 0.630703,1.3315 0.256934,0.1634 0.957719,0.56059 1.284744,0.60733 0.327035,0.0469 0.840933,0.1166 1.214675,0 0.373749,-0.11668 0.72415,-0.37375 0.957729,-0.60733 0.233585,-0.23359 0.490553,-0.67744 0.560622,-0.86432 0.07017,-0.1869 0.116734,-0.49054 -0.04671,-0.65403 -0.163405,-0.1634 -0.233575,-0.14008 -0.397098,0 -0.163407,0.14012 -0.397109,0.65403 -0.607334,0.81755 -0.210244,0.16343 -0.513902,0.44383 -0.747493,0.46721 -0.233586,0.0233 -0.934366,-0.0702 -1.144602,-0.11667 -0.210227,-0.0468 -0.654051,-0.23361 -0.770842,-0.39713 -0.116691,-0.1634 -0.0468,-1.21465 -0.0468,-1.35482 0,-0.1401 -0.02323,-1.44826 0.0468,-1.63514 0.07004,-0.18687 0.280314,-0.88765 0.350392,-1.09787 0.07011,-0.21024 0.443798,-0.817569 0.560599,-0.934379 0.116719,-0.11676 0.163419,-0.23358 0.350421,-0.25695 0.186859,-0.0234 0.560598,0.0468 0.794168,0.0468 0.233579,0 0.537258,0.16339 0.677432,0.21021 0.140088,0.0468 0.373741,0 0.490549,-0.0701 0.116747,-0.0701 0.163389,-0.32701 0.186912,-0.42046 z m -7.918764,-1.19079 c 0,0 0.02337,-0.11674 0.25697,-0.11674 0.23357,0 0.560594,0 0.957699,0.0234 0.397111,0.0233 0.747502,-0.0934 1.027803,-0.0234 0.280316,0.0701 0.53725,0.23358 0.700781,0.21023 0.163399,-0.0235 0.373733,-0.1869 0.373733,-0.35039 0,-0.16343 -0.350368,-0.46719 -0.583976,-0.56061 -0.233577,-0.0934 -0.67738,-0.18696 -0.957722,-0.2336 -0.280306,-0.0468 -1.261357,-0.0934 -1.588418,-0.0235 -0.327028,0.07 -0.770852,0.2803 -1.004438,0.5606 -0.233605,0.28033 -0.256936,0.93439 -0.186954,1.3081 0.06999,0.37378 0.327014,1.33152 0.537256,1.658539 0.210254,0.32702 0.630716,0.95772 0.957734,1.3081 0.327031,0.35038 0.957713,0.72415 1.144594,1.23803 0.186816,0.51391 0.420457,1.1913 0.35038,1.51836 -0.07012,0.32702 0.163406,0.53725 -0.163411,0.86427 -0.327043,0.32703 -1.004454,0.16341 -1.284777,0.16341 -0.280255,0 -0.770843,0.0701 -1.051137,-0.1869 -0.280323,-0.25694 -0.490549,-0.6307 -0.513919,-0.84093 -0.02333,-0.21025 0.07014,-0.72413 -0.07008,-0.88765 -0.140116,-0.1634 -0.327002,-0.23358 -0.443804,-0.11667 -0.116733,0.11667 -0.280322,0.86428 -0.280322,1.05115 0,0.18692 0.02334,0.72415 0.186971,0.93438 0.163405,0.21022 0.677402,0.65405 1.004417,0.79419 0.327042,0.14006 1.051182,0.30371 1.354843,0.30371 0.303677,0 1.027782,-0.28031 1.284735,-0.42048 0.256976,-0.14016 0.583993,-0.65406 0.654038,-0.88765 0.07019,-0.2336 0.140131,-0.79421 0.116747,-1.12123 -0.0234,-0.32703 -0.2336,-1.07454 -0.327012,-1.28477 -0.09338,-0.21023 -0.630648,-0.88766 -0.817565,-1.1446 -0.186931,-0.25695 -0.560621,-0.65407 -0.747495,-0.84093 -0.18689,-0.18688 -0.537241,-0.49054 -0.630668,-0.747509 -0.09342,-0.25691 -0.350367,-0.63068 -0.350367,-0.86428 0,-0.23358 -0.09338,-0.65404 -0.09338,-0.7942 0,-0.14017 0.186956,-0.49053 0.186956,-0.49053 z m -6.704071,4.298109 c 0,0 0.420453,0.23357 0.654054,0.28029 0.233591,0.0467 0.794217,0.14015 1.074509,0.16339 0.280331,0.0234 0.747496,0.0934 1.074526,0.11671 0.327053,0.0233 0.840926,0.0233 0.957728,0.0233 0.116733,0 0.210238,-0.1166 0.210238,-0.25694 0,-0.14009 -0.07008,-0.44381 -0.163407,-0.51389 -0.09336,-0.0701 -0.911013,-0.0468 -1.097886,-0.0468 -0.186942,0 -0.420456,-0.0934 -0.724126,-0.11673 -0.303692,-0.0234 -0.934379,-0.11675 -1.097881,-0.14009 -0.163401,-0.0233 -0.467191,-0.0934 -0.607349,-0.0233 -0.140187,0.07 -0.280305,0.51391 -0.280305,0.51391 z m -4.06929,-3.900759 c -0.298381,-2.3e-4 -0.637476,0.0328 -0.812669,0.0476 -0.280285,0.0234 -1.09745,0.28003 -1.354382,0.44357 -0.256971,0.16341 -0.747973,1.21408 -0.818069,1.541119 -0.07004,0.32701 -0.280587,1.21514 -0.280587,1.54219 0,0.32702 -0.116027,1.19178 0.04771,1.54216 0.163421,0.3504 0.560629,1.26074 0.724133,1.471 0.163415,0.21022 0.653531,0.70061 0.887116,0.91086 0.233598,0.21023 0.676946,0.39789 0.957246,0.44462 0.280336,0.047 0.841015,-0.0238 1.121332,-0.0938 0.28029,-0.0701 0.864271,-0.35018 1.051133,-0.5137 0.186952,-0.1634 0.677901,-0.63084 0.818057,-0.86444 0.140215,-0.23359 0.397135,-0.42043 0.397135,-0.65402 0,-0.23356 -0.257364,-0.58452 -0.420872,-0.5612 -0.163418,0.0234 -0.583689,0.60814 -0.770576,0.77164 -0.186883,0.16341 -0.934114,0.70049 -1.167692,0.77058 -0.233606,0.0701 -0.841456,0.28051 -1.215198,0.21043 -0.373739,-0.0701 -0.840453,-0.42071 -0.95726,-0.60759 -0.116747,-0.18685 -0.467299,-0.79454 -0.467299,-1.00475 0,-0.21021 -0.116536,-0.72365 -0.116536,-0.95726 0,-0.23359 0.09279,-1.00474 0.09279,-1.00474 0,0 0.701398,0.14049 0.958361,0.16382 0.25694,0.0234 0.724122,-3.8e-4 1.051117,-0.0237 0.32705,-0.0234 0.606899,-0.0231 0.957276,-0.11642 0.350378,-0.0935 0.840851,-0.25693 0.981018,-0.32701 0.140088,-0.07 0.373479,-0.0703 0.443543,-0.28059 0.07005,-0.21024 -0.139989,-0.86403 -0.256813,-1.167709 -0.116803,-0.30368 -0.420442,-0.74817 -0.654033,-1.02848 -0.233584,-0.28032 -0.466505,-0.51308 -0.746831,-0.60653 -0.105232,-0.035 -0.26993,-0.0475 -0.44895,-0.0476 z m -0.461904,0.95834 h 0.25686 c 0,0 0.46711,0.07 0.653996,0.25682 0.186944,0.18698 0.41982,0.49092 0.41982,0.677779 0,0.18693 0.0938,0.46622 0.0938,0.46622 0,0 -0.561081,0.2112 -0.818031,0.2579 -0.256945,0.0469 -0.513295,0.13918 -0.816984,0.13918 h -0.910875 c -0.210234,0 -0.514767,-0.13918 -0.514767,-0.13918 0,0 1.63e-4,-0.23443 0.140244,-0.51475 0.14013,-0.280319 0.28018,-0.630089 0.583844,-0.816959 0.303667,-0.18699 0.655007,-0.32701 0.911937,-0.32701 z m -6.914781,0.63049 c 0,0 0.327022,-0.14009 0.537264,-0.18695 0.21024,-0.0468 0.350406,-0.11668 0.630702,-0.11668 0.280309,0 0.537262,0.0934 0.74748,0.21024 0.210245,0.11673 0.420482,0.37375 0.513906,0.583969 0.09343,0.21022 0.303698,0.5139 0.327025,0.70074 0.02345,0.18694 0.04684,0.51393 0.04684,0.77088 0,0.25694 0,0.49052 0,0.49052 l -1.074531,-0.0467 c 0,0 -0.09329,-0.28028 -0.116719,-0.51386 -0.02333,-0.23359 0,-0.49056 -0.09342,-0.72415 -0.09331,-0.23358 -0.233613,-0.39713 -0.397103,-0.46719 -0.163427,-0.07 -0.490548,-0.18691 -0.700792,-0.0235 -0.210224,0.16343 -0.30367,0.18693 -0.350398,0.44382 -0.04678,0.25695 -0.04678,0.63069 -0.04678,0.91101 0,0.28031 -0.04677,1.09788 -0.04677,1.28474 0,0.18694 -0.07002,1.02782 -0.04677,1.23802 0.0234,0.21027 0,0.65407 0,0.65407 l -1.051194,-0.0467 c 0,0 -0.07001,-0.81757 -0.07001,-1.12125 0,-0.30368 0.09332,-0.84093 0.116775,-1.07454 0.02333,-0.23357 0.02333,-0.81754 0.02333,-1.05114 0,-0.23359 0.02343,-1.12123 0.02343,-1.35482 0,-0.2336 -0.07006,-0.724159 -0.02343,-1.004449 0.04679,-0.28029 0.116733,-0.58398 0.303639,-0.67741 0.186925,-0.0934 0.303698,-0.0934 0.443837,0.0469 0.140088,0.14011 0.116803,0.39713 0.116803,0.56063 0,0.16342 0.04675,0.39711 0.04675,0.39711 z m -5.197219,-3.84969 c -0.23738,0.001 -0.53565,0.0337 -0.712284,0.0658 -0.256952,0.0468 -0.490563,0.32644 -0.724146,0.48996 -0.233603,0.16341 -0.607742,0.65422 -0.747894,0.86443 -0.14013,0.21026 -0.350836,0.67766 -0.420896,0.9346 -0.07016,0.25698 -0.16327,1.00468 -0.186729,1.26162 -0.02333,0.25694 0.117228,1.004649 0.163842,1.261569 0.04679,0.25699 0.02259,0.98017 0.02259,1.1904 0,0.21024 7.01e-4,1.07478 -0.02259,1.33173 -0.02343,0.25697 -0.139933,0.91124 -0.186779,1.26161 -0.04678,0.3504 -0.116577,0.84058 -0.186709,1.09756 -0.06999,0.25696 -0.304328,0.77165 -0.304328,0.77165 0,0 0.327149,0.23274 0.467291,0.2795 0.140088,0.0463 0.560129,0.0938 0.560129,0.0938 0,0 0.187518,-0.60777 0.234191,-0.81798 0.0467,-0.21024 0.233866,-0.79392 0.280572,-1.09761 0.04692,-0.30365 0.163032,-0.81757 0.23312,-1.05112 0.07008,-0.23359 0.07052,-0.79452 0.0939,-1.00476 0.02343,-0.21022 -0.02369,-0.91087 -0.02369,-0.91087 0,0 0.630531,0.44411 0.910836,0.60762 0.280296,0.16341 0.584138,0.23311 0.864444,0.23311 0.280305,0 0.747942,-0.11657 1.145071,-0.25685 0.39709,-0.14015 0.816775,-0.53699 1.003632,-0.77058 0.186899,-0.2336 0.421377,-0.67687 0.514801,-0.8871 0.09346,-0.21022 0.326998,-0.888469 0.326998,-1.168779 0,-0.28031 -0.210194,-0.81756 -0.326998,-1.05117 -0.116676,-0.23356 -0.490872,-0.86395 -0.677763,-1.09753 -0.186865,-0.23361 -0.864646,-0.93407 -1.074865,-1.09758 -0.210264,-0.1634 -0.747054,-0.46699 -0.957271,-0.51371 -0.06567,-0.0122 -0.160991,-0.0181 -0.268748,-0.017 z m -0.385279,0.83654 c 0,0 0.115886,9e-5 0.279521,0.0701 0.163409,0.0701 0.420428,0.0463 0.654028,0.23311 0.23356,0.18693 0.560604,0.44378 0.724114,0.654 0.163398,0.21023 0.561649,0.65422 0.655092,0.86446 0.09338,0.21021 0.279515,0.74731 0.279515,0.91084 0,0.1634 -0.06992,0.631099 -0.116478,0.747899 -0.04679,0.11668 -0.257388,0.63117 -0.420881,0.81804 -0.163392,0.18689 -0.55988,0.70016 -0.676681,0.81696 -0.116648,0.11663 -0.163691,0.18677 -0.350708,0.18677 -0.186879,0 -0.443355,-0.18687 -0.560145,-0.32697 -0.116747,-0.14004 -0.467377,-0.39629 -0.537439,-0.60652 -0.07024,-0.21025 -0.373779,-0.63087 -0.397164,-0.86445 -0.02333,-0.233589 -0.163824,-0.771149 -0.163824,-1.004739 0,-0.23359 -0.02265,-0.81757 0.04759,-1.05116 0.07024,-0.23358 0.23283,-0.70124 0.279542,-0.81804 0.04678,-0.1167 6.61e-4,-0.3266 0.304362,-0.63026 z"
     inkscape:label="Pre-School text" /></svg>
